<svg width="18" height="17" viewBox="0 0 18 17" fill="none" xmlns="http://www.w3.org/2000/svg">
<path d="M1.4375 16.3969C1.23572 16.3962 1.03644 16.3523 0.853122 16.268C0.614556 16.1595 0.412746 15.9839 0.272343 15.7626C0.13194 15.5413 0.0590226 15.2839 0.0624965 15.0219V1.375C0.0624965 1.01033 0.207362 0.660591 0.465225 0.402728C0.723087 0.144866 1.07282 0 1.4375 0H16.5625C16.9272 0 17.2769 0.144866 17.5348 0.402728C17.7926 0.660591 17.9375 1.01033 17.9375 1.375V12.375C17.9375 12.7397 17.7926 13.0894 17.5348 13.3473C17.2769 13.6051 16.9272 13.75 16.5625 13.75H5.08984L2.32265 16.0789C2.07452 16.2863 1.76088 16.399 1.4375 16.3969ZM1.4375 1.375V15.0219L4.20468 12.7016C4.45042 12.4891 4.76497 12.373 5.08984 12.375H16.5625V1.375H1.4375Z" fill="white"/>
</svg>
