<svg width="110" height="110" viewBox="0 0 110 110" fill="none" xmlns="http://www.w3.org/2000/svg">
<g clip-path="url(#clip0_230_41)">
<path d="M30.4742 33.8193H27.3423V30.6932H25.0126V33.8193H21.8807V36.1466H25.0126V39.2754H27.3423V36.1466H30.4742V33.8193Z" fill="white"/>
<path d="M34.9635 38.0387C35.4978 38.0326 36.0294 38.116 36.5361 38.2855C36.9933 38.4383 37.412 38.6881 37.7633 39.0179C38.116 39.3548 38.3883 39.7666 38.5603 40.2227C38.7597 40.7645 38.8561 41.3387 38.8445 41.9158V47.2923H36.5919V46.4139C36.2613 46.7618 35.8588 47.0335 35.4124 47.21C34.9057 47.4118 34.364 47.511 33.8186 47.5019C33.367 47.5104 32.9174 47.4394 32.4904 47.2923C32.1271 47.1686 31.7908 46.9767 31.4995 46.727C31.2341 46.4928 31.0252 46.2016 30.8886 45.8752C30.7449 45.5343 30.6725 45.1676 30.6761 44.7978C30.6596 44.4235 30.7353 44.051 30.8964 43.7128C31.0576 43.3746 31.2994 43.081 31.6005 42.8579C32.2168 42.3961 33.0562 42.1644 34.1188 42.1626H36.3926V41.7698C36.4048 41.5566 36.3739 41.3431 36.3018 41.1421C36.2297 40.941 36.1179 40.7565 35.9729 40.5995C35.7979 40.4476 35.5942 40.332 35.3739 40.2595C35.1536 40.1871 34.9211 40.1592 34.6899 40.1776C34.2447 40.1707 33.8059 40.2844 33.4201 40.5067C33.0052 40.7599 32.6263 41.0678 32.2938 41.4222L31.0294 39.9043C31.4953 39.3097 32.0933 38.8317 32.7762 38.5079C33.459 38.1841 34.2078 38.0235 34.9635 38.0387ZM34.4694 45.7C34.9697 45.7133 35.4566 45.537 35.8321 45.2064C36.0154 45.0448 36.1605 44.8446 36.257 44.6202C36.3535 44.3958 36.3989 44.1528 36.39 43.9088V43.8H34.4508C33.6087 43.8 33.1864 44.1025 33.1864 44.7128C33.1796 44.8552 33.2089 44.997 33.2716 45.125C33.3343 45.2531 33.4283 45.3632 33.545 45.4453C33.8184 45.6258 34.142 45.715 34.4694 45.7Z" fill="white"/>
<path d="M61.1132 40.3051H58.239V47.2924H55.7845V40.3051H52.9315V38.2139H61.1132V40.3051Z" fill="white"/>
<path d="M39.0491 59.6348H36.576V52.6661H33.3033V59.6348H30.8302V50.5803H39.065L39.0491 59.6348Z" fill="white"/>
<path d="M46.7899 47.502C47.3946 47.5089 47.994 47.3877 48.5484 47.1464C49.076 46.9141 49.5493 46.5742 49.9377 46.1486C50.3367 45.7092 50.6478 45.1976 50.8542 44.6413C51.0789 44.036 51.1905 43.3947 51.1836 42.7492C51.191 42.1062 51.0793 41.4674 50.8542 40.865C50.6454 40.3176 50.3354 39.8144 49.9404 39.3816C49.5504 38.9592 49.0762 38.6229 48.5484 38.3944C47.9907 38.1546 47.3891 38.0335 46.7819 38.0388C46.2001 38.0277 45.6228 38.1427 45.0898 38.3758C44.6072 38.5931 44.1884 38.9302 43.8731 39.355V38.2405H41.6019V50.583H43.3259V52.3875C43.334 53.1756 43.2941 53.9635 43.2064 54.7467C43.1533 55.2797 43.0273 55.803 42.8318 56.3018C42.6989 56.6556 42.471 56.9659 42.173 57.1987C41.8916 57.4001 41.5633 57.5261 41.2194 57.565V59.7437C41.8383 59.7131 42.4482 59.5831 43.0258 59.3589C43.5888 59.1314 44.0857 58.7665 44.4708 58.2974C44.9213 57.7375 45.249 57.0892 45.4325 56.3947C45.6849 55.4427 45.802 54.4601 45.7804 53.4756V52.6529H48.0517V59.6243H50.5062V50.575H44.0803V46.4405C44.7391 47.1482 45.6423 47.502 46.7899 47.502ZM44.245 41.624C44.3667 41.3342 44.5477 41.0729 44.7763 40.8571C44.9857 40.6581 45.2346 40.5053 45.5068 40.4086C45.7805 40.3112 46.069 40.2619 46.3595 40.2626C46.6665 40.2598 46.9709 40.3185 47.2547 40.4351C47.5346 40.5506 47.7878 40.7222 47.9985 40.9393C48.2178 41.1683 48.3885 41.439 48.5006 41.7354C48.6264 42.0658 48.6886 42.417 48.6839 42.7704C48.6903 43.1257 48.628 43.4789 48.5006 43.8107C48.3881 44.1013 48.2172 44.3659 47.9985 44.5882C47.7866 44.8013 47.5335 44.9692 47.2547 45.0818C46.9711 45.1994 46.6667 45.2589 46.3595 45.2569C46.0691 45.2563 45.7809 45.207 45.5068 45.111C45.2302 45.0118 44.9776 44.8553 44.7657 44.6519C44.5319 44.429 44.3505 44.1571 44.2344 43.8558C44.0998 43.4999 44.0349 43.1215 44.0432 42.7412C44.036 42.3617 44.1046 41.9846 44.245 41.6319V41.624Z" fill="white"/>
<path d="M56.7886 50.2671C57.3239 50.262 57.8563 50.3463 58.3638 50.5166C58.8201 50.6701 59.2385 50.9189 59.5911 51.2464C59.9415 51.5862 60.2134 51.9982 60.388 52.4538C60.5859 52.9923 60.6823 53.5628 60.6722 54.1363V59.5154H58.417V58.6477C58.0861 58.9952 57.6837 59.2668 57.2375 59.4438C56.7304 59.6442 56.1889 59.7434 55.6437 59.7357C55.1921 59.7439 54.7425 59.673 54.3155 59.526C53.9526 59.4018 53.6171 59.209 53.3273 58.9581C53.0597 58.7253 52.8497 58.4337 52.7136 58.1063C52.5699 57.7654 52.4976 57.3987 52.5011 57.0289C52.4843 56.6543 52.56 56.2814 52.7217 55.9431C52.8834 55.6047 53.1261 55.3114 53.4282 55.089C54.0445 54.6255 54.8839 54.3937 55.9465 54.3937H58.2177V53.9903C58.2295 53.7769 58.1982 53.5633 58.1257 53.3623C58.0531 53.1612 57.9408 52.9768 57.7954 52.82C57.6203 52.6681 57.4166 52.5525 57.1963 52.48C56.976 52.4076 56.7435 52.3797 56.5123 52.3981C56.0662 52.3911 55.6265 52.5048 55.2399 52.7272C54.8259 52.9817 54.4472 53.2895 54.1136 53.6427L52.8624 52.1354C53.3277 51.5419 53.9244 51.0644 54.6056 50.7402C55.2869 50.416 56.0341 50.2541 56.7886 50.2671ZM56.2945 57.9338C56.7948 57.9471 57.2817 57.7708 57.6572 57.4402C57.8408 57.2787 57.9864 57.0786 58.0833 56.8542C58.1802 56.6298 58.2261 56.3868 58.2177 56.1425V56.0311H56.2759C55.4347 56.0311 55.0132 56.3363 55.0114 56.9466C55.0046 57.0887 55.0336 57.2302 55.0958 57.3582C55.158 57.4862 55.2514 57.5965 55.3674 57.679C55.6419 57.8592 55.9663 57.9484 56.2945 57.9338Z" fill="white"/>
<path d="M70.995 52.6475H68.1208V59.6348H65.6663V52.6475H62.808V50.5617H70.995V52.6475Z" fill="white"/>
<path d="M38.555 62.4318C39.259 62.4376 39.958 62.5522 40.627 62.7714C41.2428 62.9703 41.8145 63.2856 42.3111 63.7003C42.7905 64.1049 43.1743 64.6106 43.4348 65.181C43.7131 65.809 43.8509 66.49 43.8386 67.1767C43.8501 67.8666 43.7124 68.551 43.4348 69.1829C43.1754 69.7534 42.7957 70.2612 42.3218 70.6716C41.8274 71.087 41.2586 71.4049 40.6456 71.6084C39.9716 71.8349 39.266 71.9531 38.555 71.9587V75.0503H36.0686V71.9587C35.361 71.9538 34.6587 71.8355 33.9886 71.6084C33.3774 71.4031 32.8117 71.0814 32.3231 70.661C31.8479 70.2479 31.4674 69.7374 31.2074 69.1643C30.9413 68.5344 30.8042 67.8577 30.8042 67.174C30.8042 66.4903 30.9413 65.8136 31.2074 65.1837C31.467 64.6149 31.8477 64.1095 32.3231 63.7029C32.8155 63.2866 33.385 62.971 33.9992 62.7741C34.6673 62.5546 35.3654 62.44 36.0686 62.4344L38.555 62.4318ZM33.2342 67.2112C33.2119 67.5749 33.2703 67.9391 33.4054 68.2777C33.5404 68.6162 33.7486 68.9208 34.0152 69.1696C34.6018 69.6514 35.3473 69.8974 36.1058 69.8596H36.143V64.5521H36.1058C35.3471 64.513 34.6012 64.7591 34.0152 65.2421C33.7493 65.4903 33.5415 65.794 33.4065 66.1316C33.2715 66.4692 33.2127 66.8323 33.2342 67.1952V67.2112ZM38.4806 64.5574V69.8649H38.5178C39.2823 69.9048 40.0342 69.6589 40.627 69.1749C41.1286 68.646 41.4082 67.9451 41.4082 67.2165C41.4082 66.4878 41.1286 65.7869 40.627 65.258C40.0347 64.7731 39.2824 64.527 38.5178 64.568L38.4806 64.5574Z" fill="white"/>
<path d="M50.8993 62.4317C52.1844 62.425 53.422 62.9158 54.3527 63.801C54.8024 64.2258 55.1636 64.7354 55.4152 65.3004C55.6764 65.8912 55.8086 66.5308 55.8031 67.1766C55.808 67.8249 55.6758 68.467 55.4152 69.0607C55.165 69.6296 54.8038 70.143 54.3527 70.5707C53.4162 71.4522 52.1781 71.9432 50.8914 71.9432C49.6047 71.9432 48.3665 71.4522 47.4301 70.5707C46.9853 70.1427 46.6319 69.629 46.3914 69.0607C46.1359 68.4656 46.0065 67.8241 46.0116 67.1766C46.006 66.5316 46.1354 65.8925 46.3914 65.3004C46.6334 64.7361 46.9867 64.2261 47.4301 63.801C47.8798 63.3752 48.4038 63.0352 48.9761 62.7979C49.5864 62.5491 50.2402 62.4246 50.8993 62.4317ZM50.8993 64.6927C50.5812 64.6813 50.2643 64.7387 49.9704 64.861C49.6765 64.9833 49.4126 65.1676 49.1966 65.4012C48.7537 65.8917 48.5194 66.5351 48.5431 67.1952C48.5171 67.85 48.7521 68.4884 49.1966 68.9705C49.4155 69.1991 49.6805 69.3788 49.9739 69.4978C50.2674 69.6167 50.5828 69.6721 50.8993 69.6605C51.2188 69.6636 51.5354 69.6003 51.8291 69.4747C52.1116 69.3578 52.366 69.1824 52.5755 68.9599C52.7889 68.7334 52.9574 68.4687 53.0723 68.1797C53.1969 67.8666 53.2592 67.5321 53.2556 67.1952C53.2586 66.8557 53.1964 66.5187 53.0723 66.2027C52.9601 65.9076 52.7913 65.6371 52.5755 65.4065C52.3648 65.1815 52.111 65.001 51.8291 64.8758C51.5355 64.7501 51.2187 64.6877 50.8993 64.6927Z" fill="white"/>
<path d="M63.2462 62.4318C63.8571 62.4264 64.4624 62.5484 65.0234 62.7901C65.5547 63.0188 66.0318 63.357 66.4233 63.7826C66.8181 64.2211 67.1272 64.7296 67.3344 65.2819C67.5607 65.8878 67.6733 66.5301 67.6665 67.1767C67.6728 67.8259 67.5603 68.4707 67.3344 69.0794C67.1262 69.6374 66.8124 70.1501 66.41 70.5894C66.0196 71.0177 65.5436 71.3594 65.0127 71.5925C64.4547 71.8347 63.8519 71.9568 63.2436 71.9508C62.0907 71.9508 61.1822 71.589 60.5181 70.8654V75.0424H58.0317V62.6282H60.3162V63.7507C60.6326 63.3225 61.0545 62.9834 61.5408 62.7662C62.0782 62.5323 62.6602 62.4182 63.2462 62.4318ZM62.8053 64.6742C62.5128 64.6741 62.2226 64.7244 61.9473 64.8228C61.6727 64.9193 61.4219 65.0731 61.2114 65.274C60.9818 65.4911 60.8008 65.7542 60.6801 66.0462C60.5356 66.4052 60.466 66.7899 60.4756 67.1767C60.4682 67.5598 60.534 67.9408 60.6695 68.2992C60.7872 68.5997 60.9684 68.8712 61.2008 69.0954C61.4142 69.2982 61.6675 69.4546 61.9446 69.5545C62.2199 69.6529 62.5102 69.7031 62.8026 69.7031C63.1115 69.705 63.4176 69.6455 63.7031 69.5279C63.9822 69.4131 64.2358 69.2445 64.4496 69.0317C64.67 68.8077 64.8426 68.5414 64.957 68.2488C65.0861 67.9101 65.1483 67.5496 65.1402 67.1873C65.1447 66.8322 65.0825 66.4793 64.957 66.147C64.8425 65.8506 64.67 65.5799 64.4496 65.3509C64.2384 65.1324 63.9843 64.9598 63.7031 64.8441C63.418 64.7287 63.1129 64.6709 62.8053 64.6742Z" fill="white"/>
<path d="M79.8913 71.7384H77.4235V67.3598L75.2133 69.8437H74.3792L72.1877 67.3783V71.7384H69.7013V62.4318H70.5301L74.8016 67.2085L79.0917 62.4318H79.8886L79.8913 71.7384Z" fill="white"/>
<path d="M85.9745 62.432C86.5158 62.4245 87.0546 62.5079 87.5683 62.6788C88.0276 62.8335 88.4486 63.0841 88.8035 63.4139C89.1562 63.7549 89.4285 64.1701 89.6004 64.6293C89.8021 65.1733 89.8994 65.7504 89.8873 66.3304V71.7387H87.6214V70.855C87.2895 71.2081 86.8842 71.4844 86.434 71.6644C85.9222 71.8681 85.3751 71.9682 84.8242 71.959C84.3724 71.9669 83.9228 71.8951 83.496 71.7467C83.1308 71.6225 82.7927 71.4297 82.4999 71.1788C82.2335 70.9421 82.023 70.6493 81.8836 70.3216C81.7399 69.9779 81.6676 69.6087 81.6711 69.2362C81.6546 68.8603 81.7308 68.4861 81.8929 68.1465C82.055 67.8069 82.2981 67.5122 82.6008 67.2884C83.2224 66.8213 84.0645 66.5878 85.135 66.5878H87.4169V66.1844C87.4298 65.9697 87.399 65.7546 87.3264 65.5521C87.2539 65.3496 87.1409 65.1639 86.9945 65.0062C86.818 64.854 86.613 64.7383 86.3914 64.6658C86.1698 64.5934 85.9359 64.5657 85.7035 64.5842C85.2556 64.576 84.8139 64.6898 84.4258 64.9133C84.0091 65.1695 83.6278 65.4791 83.2915 65.8341L82.0217 64.3082C82.4898 63.7106 83.0905 63.23 83.7766 62.9044C84.4626 62.5787 85.2151 62.417 85.9745 62.432ZM85.4777 70.1279C85.9818 70.1416 86.4724 69.9643 86.8511 69.6316C87.0349 69.4686 87.1804 69.267 87.2773 69.0413C87.3742 68.8157 87.42 68.5714 87.4116 68.326V68.2145H85.4591C84.6108 68.2145 84.1876 68.5215 84.1894 69.1354C84.1826 69.2781 84.2119 69.4202 84.2746 69.5487C84.3373 69.6772 84.4313 69.7878 84.548 69.8705C84.8214 70.0565 85.1471 70.1505 85.4777 70.1385V70.1279Z" fill="white"/>
<path d="M5.33933 51.9442C5.32028 52.3059 5.23001 52.6603 5.07369 52.9871C4.77098 53.6173 4.23165 54.1027 3.57282 54.3379C3.23319 54.4621 2.87099 54.5128 2.51026 54.4865C2.14546 54.4674 1.78881 54.3715 1.46364 54.2052C1.15952 54.0471 0.888901 53.8318 0.666715 53.571C0.442254 53.3082 0.270859 53.0045 0.161998 52.6767C-0.0707526 51.9785 -0.0231345 51.2174 0.294819 50.5537C0.443745 50.2406 0.653195 49.9602 0.911105 49.7284C1.16885 49.496 1.46926 49.3157 1.79569 49.1976C2.13615 49.0769 2.4978 49.0272 2.85825 49.0517C3.21341 49.0713 3.56101 49.162 3.88043 49.3183C4.19985 49.4747 4.48458 49.6935 4.71773 49.9619C4.94359 50.2241 5.11595 50.5279 5.22511 50.8562C5.33706 51.2073 5.37593 51.5776 5.33933 51.9442ZM4.5796 51.9044C4.59755 51.6509 4.56412 51.3964 4.48131 51.1561C4.40277 50.9312 4.28094 50.7238 4.1227 50.5457C3.96154 50.3664 3.76537 50.2219 3.54626 50.1211C3.31078 50.0114 3.05656 49.9475 2.79715 49.9327C2.53503 49.914 2.27176 49.9456 2.02148 50.0256C1.79035 50.0992 1.5763 50.2183 1.39191 50.3759C1.20922 50.5301 1.06083 50.7209 0.956264 50.9358C0.843217 51.1634 0.778121 51.4118 0.765002 51.6656C0.745506 51.9174 0.778986 52.1705 0.863289 52.4086C0.943001 52.6335 1.0657 52.8408 1.22456 53.019C1.38722 53.1996 1.58521 53.345 1.80631 53.4462C2.28296 53.6666 2.82469 53.7016 3.32578 53.5444C3.55598 53.4692 3.76904 53.3492 3.95269 53.1915C4.13811 53.0298 4.28915 52.8326 4.39683 52.6115C4.50452 52.3904 4.56667 52.1499 4.5796 51.9044Z" fill="white"/>
<path d="M4.55835 59.5047L4.48131 57.7692L0.058398 57.9708L0.0212084 57.1402L4.44147 56.9412L4.36443 55.1977L5.10822 55.1632L5.31277 59.4729L4.55835 59.5047Z" fill="white"/>
<path d="M0.419631 62.0496L0.297437 61.2296L5.41102 60.4707L5.53321 61.2933L0.419631 62.0496ZM3.29386 62.6919L0.924348 65.457L0.772933 64.4433L3.14245 61.6702L5.84401 63.4614L5.99543 64.4672L3.29386 62.6919Z" fill="white"/>
<path d="M6.74725 67.5322C6.81012 67.7701 6.83257 68.0168 6.81366 68.262C6.79872 68.4781 6.73902 68.6886 6.63834 68.8804C6.53854 69.0621 6.40301 69.2219 6.23987 69.3501C6.06334 69.4821 5.8618 69.5769 5.6475 69.6287C5.43468 69.6867 5.21205 69.6993 4.99402 69.6659C4.78914 69.6345 4.59344 69.5594 4.42024 69.4456C4.23985 69.3276 4.08457 69.1752 3.96334 68.9971C3.82717 68.7922 3.72825 68.5649 3.67113 68.3257L3.40549 67.3093L1.47163 67.8029L1.26443 67.0068L6.27706 65.733L6.74725 67.5322ZM5.77235 66.6963L4.12538 67.1156L4.39102 68.1267C4.41195 68.2486 4.45733 68.3651 4.52443 68.469C4.59153 68.573 4.67898 68.6624 4.78151 68.7318C4.87876 68.7888 4.98682 68.8252 5.09884 68.8384C5.21086 68.8517 5.32442 68.8415 5.43233 68.8087C5.54211 68.785 5.64587 68.7391 5.73724 68.6738C5.8286 68.6086 5.90564 68.5253 5.96361 68.4292C6.023 68.3206 6.05932 68.2009 6.07029 68.0776C6.08126 67.9543 6.06665 67.8301 6.02736 67.7127L5.77235 66.6963Z" fill="white"/>
<path d="M5.98749 71.7704L6.43908 72.938C6.53383 73.1711 6.58688 73.419 6.59581 73.6704C6.60144 73.8938 6.56448 74.1163 6.4869 74.3259C6.41143 74.5256 6.29363 74.7067 6.14157 74.8566C5.97978 75.0119 5.78822 75.1329 5.57841 75.2122C5.36709 75.2951 5.14126 75.3348 4.91431 75.329C4.70018 75.3226 4.48996 75.2701 4.29802 75.1751C4.09551 75.0732 3.915 74.9325 3.76674 74.7611C3.60525 74.5681 3.47771 74.3492 3.38953 74.1136L2.65636 72.1817L7.47774 70.3241L7.77791 71.0963L5.98749 71.7704ZM5.29949 72.0357L3.63392 72.6806L4.08817 73.8482C4.12671 73.9718 4.19021 74.0862 4.27473 74.1843C4.35925 74.2825 4.46301 74.3623 4.5796 74.4188C4.68827 74.4654 4.80532 74.4895 4.9236 74.4895C5.04189 74.4895 5.15893 74.4654 5.26761 74.4188C5.37885 74.3791 5.48116 74.3179 5.56868 74.2387C5.65619 74.1594 5.72721 74.0637 5.77764 73.957C5.82483 73.8368 5.84704 73.7082 5.84293 73.5791C5.83882 73.45 5.80847 73.323 5.75373 73.206L5.29949 72.0357ZM4.71508 77.4892L4.4149 76.7169L9.23628 74.8593L9.53645 75.6315L4.71508 77.4892Z" fill="white"/>
<path d="M11.3507 80.6445L10.5326 79.1106L6.625 81.2044L6.23451 80.472L10.1421 78.3914L9.32391 76.8576L9.98004 76.5099L12.0069 80.3074L11.3507 80.6445Z" fill="white"/>
<path d="M13.9302 83.0753C14.1352 83.3736 14.2804 83.7089 14.3578 84.0624C14.5049 84.7465 14.3781 85.4609 14.0045 86.0527C13.8123 86.3595 13.557 86.6218 13.2554 86.8223C12.9554 87.0307 12.6153 87.1744 12.2566 87.2443C11.9172 87.3107 11.5681 87.3107 11.2286 87.2443C10.8904 87.1734 10.5686 87.0392 10.2803 86.8489C9.6716 86.4399 9.24361 85.8128 9.08488 85.0974C9.00982 84.7598 9.0035 84.4105 9.06628 84.0704C9.16693 83.5427 9.42293 83.057 9.80152 82.6755C10.1801 82.2939 10.6641 82.034 11.1914 81.9288C11.878 81.7939 12.5901 81.9351 13.1731 82.3216C13.4719 82.5215 13.7291 82.7774 13.9302 83.0753ZM13.3059 83.5105C13.1662 83.2998 12.9855 83.1193 12.7746 82.9797C12.575 82.8482 12.351 82.758 12.1158 82.7144C11.878 82.6716 11.6339 82.6779 11.3986 82.7329C10.8839 82.8522 10.4322 83.1587 10.1315 83.5927C9.99426 83.7932 9.89769 84.0186 9.84727 84.2562C9.80081 84.4901 9.80081 84.7308 9.84727 84.9647C9.89802 85.2135 9.99928 85.4492 10.1448 85.6573C10.2797 85.8639 10.4553 86.041 10.6608 86.1778C10.8662 86.3147 11.0974 86.4084 11.3402 86.4535C11.5798 86.4962 11.8256 86.4899 12.0627 86.4349C12.3193 86.3774 12.5621 86.2701 12.7773 86.1191C12.9859 85.9767 13.166 85.7967 13.3086 85.5883C13.4433 85.3871 13.538 85.1619 13.5875 84.9249C13.634 84.6838 13.6317 84.4357 13.5806 84.1955C13.5295 83.9553 13.4306 83.7278 13.29 83.5264L13.3059 83.5105Z" fill="white"/>
<path d="M17.8165 89.3461L16.1456 87.3957L15.1415 88.2581L16.3953 89.7177L15.8481 90.1874L14.5942 88.7252L13.351 89.7867L15.083 91.8194L14.5172 92.3024L12.2433 89.6487L16.1695 86.2864L18.3823 88.8658L17.8165 89.3461Z" fill="white"/>
<path d="M23.1399 94.3508L21.8383 93.1991L18.9162 96.5163L18.292 95.967L21.214 92.6525L19.923 91.5007L20.4171 90.9434L23.642 93.7936L23.1399 94.3508Z" fill="white"/>
<path d="M26.7579 96.9995L24.6753 95.4922L23.8996 96.5536L25.4589 97.6815L25.0366 98.2653L23.4773 97.1348L22.5156 98.4617L24.6726 100.046L24.2343 100.648L21.4053 98.5864L24.4389 94.4041L27.1909 96.3971L26.7579 96.9995Z" fill="white"/>
<path d="M29.4429 103.761L28.67 103.312L28.7842 102.384L26.771 101.216L26.0326 101.771L25.265 101.327L29.8653 97.9227L30.1096 98.0634L29.4429 103.761ZM27.3872 100.749L28.8772 101.614L29.2119 99.3371L27.3872 100.749Z" fill="white"/>
<path d="M35.5952 101.742L34.0175 101.009L32.1583 105.022L31.404 104.671L33.2632 100.659L31.6855 99.9292L32.0016 99.2525L35.9086 101.068L35.5952 101.742Z" fill="white"/>
<path d="M38.6289 102.052C38.862 102.131 39.0802 102.249 39.2744 102.4C39.4454 102.533 39.5873 102.7 39.6914 102.891C39.7889 103.073 39.8468 103.274 39.8613 103.48C39.8734 103.7 39.8409 103.92 39.7657 104.127C39.6934 104.336 39.5806 104.528 39.4337 104.693C39.2926 104.845 39.1205 104.965 38.9291 105.045C38.7287 105.129 38.5138 105.171 38.2969 105.17C38.0503 105.171 37.8055 105.127 37.5745 105.04L36.5838 104.693L35.9198 106.574L35.1362 106.309L36.8547 101.436L38.6289 102.052ZM37.3939 102.397L36.8281 103.989L37.8109 104.337C37.9248 104.385 38.0471 104.41 38.1708 104.41C38.2944 104.41 38.4168 104.385 38.5307 104.337C38.632 104.287 38.7221 104.218 38.7952 104.132C38.8683 104.046 38.9229 103.946 38.9556 103.838C38.998 103.733 39.0185 103.62 39.0157 103.507C39.013 103.394 38.9871 103.283 38.9397 103.18C38.8815 103.07 38.8016 102.974 38.7048 102.896C38.608 102.819 38.4963 102.762 38.3766 102.729L37.3939 102.397Z" fill="white"/>
<path d="M43.7583 108.872L42.8924 108.652L42.749 107.726L40.494 107.152L39.9256 107.895L39.0677 107.678L42.5737 103.151L42.8393 103.22L43.7583 108.872ZM40.9588 106.537L42.6294 106.961L42.3293 104.679L40.9588 106.537Z" fill="white"/>
<path d="M49.1057 109.69L48.2849 109.573L48.9118 105.202L47.4085 104.987C47.3151 105.674 47.1614 106.352 46.949 107.012C46.8083 107.462 46.5996 107.888 46.3301 108.275C46.1355 108.555 45.8708 108.779 45.5625 108.925C45.2821 109.046 44.9781 109.104 44.6727 109.092L44.7816 108.326C45.0033 108.313 45.2165 108.237 45.3952 108.105C45.6062 107.945 45.7779 107.739 45.8972 107.503C46.0695 107.176 46.2024 106.829 46.2929 106.471C46.4199 105.977 46.5183 105.476 46.5877 104.971L46.7073 104.135L49.8387 104.584L49.1057 109.69Z" fill="white"/>
<path d="M52.1185 106.656L53.3722 106.704C53.6241 106.711 53.8729 106.762 54.1079 106.853C54.3148 106.936 54.5041 107.057 54.6657 107.211C54.8191 107.36 54.9378 107.541 55.0136 107.742C55.0946 107.952 55.1299 108.177 55.1172 108.402C55.1127 108.629 55.0602 108.853 54.9632 109.058C54.8735 109.252 54.7409 109.424 54.5754 109.559C54.4037 109.701 54.2049 109.807 53.991 109.87C53.7503 109.943 53.4986 109.974 53.2473 109.96L51.165 109.881L51.3616 104.719L52.1929 104.751L52.1185 106.656ZM52.092 107.391L52.0229 109.175L53.2766 109.222C53.405 109.236 53.5347 109.223 53.658 109.184C53.7812 109.146 53.8954 109.083 53.9937 109C54.0778 108.917 54.1446 108.819 54.1902 108.711C54.2359 108.602 54.2593 108.486 54.2593 108.368C54.2684 108.25 54.2533 108.132 54.2149 108.02C54.1766 107.908 54.1157 107.805 54.0362 107.718C53.945 107.626 53.836 107.554 53.7158 107.506C53.5957 107.458 53.467 107.435 53.3377 107.439L52.092 107.391Z" fill="white"/>
<path d="M61.0647 109.698L60.236 109.759L60.0687 107.399L57.4764 107.583L57.6438 109.942L56.8151 110L56.4485 104.847L57.2772 104.788L57.4233 106.842L60.0183 106.659L59.8695 104.605L60.6982 104.547L61.0647 109.698Z" fill="white"/>
<path d="M64.5213 103.822C64.8774 103.752 65.2438 103.752 65.5998 103.822C66.287 103.958 66.8936 104.357 67.2893 104.934C67.5955 105.377 67.7594 105.903 67.7594 106.441C67.7594 106.98 67.5955 107.506 67.2893 107.949C66.877 108.533 66.2528 108.934 65.5494 109.066C65.1924 109.136 64.8252 109.136 64.4682 109.066C64.1279 109.001 63.8038 108.869 63.5146 108.679C63.2277 108.486 62.9806 108.24 62.7867 107.954C62.4811 107.511 62.3175 106.986 62.3175 106.448C62.3175 105.91 62.4811 105.385 62.7867 104.942C62.9839 104.658 63.2337 104.415 63.5225 104.226C63.8254 104.026 64.1649 103.889 64.5213 103.822ZM64.6754 104.568C64.4253 104.613 64.1874 104.71 63.9768 104.852C63.7825 104.985 63.6164 105.156 63.488 105.353C63.357 105.556 63.2668 105.782 63.2224 106.019C63.1746 106.275 63.1746 106.537 63.2224 106.792C63.2703 107.049 63.3677 107.295 63.5092 107.516C63.637 107.725 63.806 107.906 64.006 108.047C64.2025 108.183 64.4249 108.278 64.6595 108.326C64.9081 108.379 65.1652 108.379 65.4139 108.326C65.6619 108.281 65.898 108.185 66.1072 108.044C66.3083 107.91 66.4802 107.737 66.6126 107.535C66.745 107.333 66.8351 107.106 66.8776 106.869C66.9266 106.611 66.9266 106.346 66.8776 106.088C66.8309 105.835 66.7353 105.592 66.596 105.375C66.4662 105.167 66.2965 104.986 66.0966 104.844C65.8974 104.715 65.6757 104.625 65.4431 104.579C65.1916 104.517 64.9299 104.51 64.6754 104.557V104.568Z" fill="white"/>
<path d="M71.818 102.729L69.3638 103.496L69.7596 104.759L71.6002 104.183L71.8154 104.87L69.9747 105.446L70.4661 107.007L73.0079 106.21L73.2284 106.922L69.895 107.965L68.3492 103.034L71.5949 102.02L71.818 102.729Z" fill="white"/>
<path d="M81.0628 103.464L80.3163 103.83L78.3639 99.8627L76.1989 100.924L78.154 104.892L77.4076 105.258L75.1257 100.624L78.7809 98.8277L81.0628 103.464Z" fill="white"/>
<path d="M81.6815 97.079C81.8887 96.9464 82.1168 96.8495 82.3561 96.7924C82.5666 96.7407 82.7855 96.7334 82.9989 96.7712C83.2033 96.8078 83.3972 96.8884 83.5673 97.0074C83.748 97.1344 83.9007 97.2969 84.0162 97.4851C84.1341 97.6709 84.2136 97.8784 84.2499 98.0954C84.2813 98.3039 84.2668 98.5167 84.2074 98.719C84.148 98.9277 84.0479 99.1225 83.9126 99.2923C83.7577 99.4846 83.5708 99.6489 83.3601 99.7779L82.4757 100.311L83.5381 102.004L82.8342 102.445L80.0905 98.0662L81.6815 97.079ZM81.1822 98.2599L82.0852 99.6983L82.967 99.1463C83.0744 99.0869 83.1689 99.0069 83.245 98.9108C83.3211 98.8146 83.3774 98.7044 83.4106 98.5864C83.4501 98.3636 83.4054 98.1341 83.2852 97.9424C83.1649 97.7507 82.9777 97.6104 82.7599 97.5488C82.6379 97.5254 82.5124 97.5274 82.3913 97.5548C82.2701 97.5822 82.156 97.6344 82.056 97.708L81.1822 98.2599Z" fill="white"/>
<path d="M85.9373 93.9582C86.2202 93.7313 86.5452 93.5627 86.8936 93.462C87.2263 93.3655 87.5744 93.334 87.919 93.3691C88.2636 93.4071 88.598 93.5098 88.9045 93.6716C89.2245 93.8424 89.505 94.0783 89.728 94.3642C89.9495 94.6418 90.113 94.961 90.2088 95.3029C90.3047 95.6448 90.3308 96.0024 90.2858 96.3545C90.2399 96.6973 90.1281 97.0281 89.9564 97.3284C89.7792 97.6439 89.5408 97.9208 89.2551 98.1431C88.9715 98.3708 88.6456 98.5404 88.2962 98.642C87.9637 98.7395 87.6154 98.7711 87.2708 98.7349C86.9273 98.6962 86.5945 98.5917 86.2906 98.4271C85.9724 98.2537 85.693 98.0171 85.4698 97.7318C85.2425 97.4496 85.0761 97.1234 84.981 96.7738C84.7983 96.0997 84.8889 95.3807 85.2334 94.7729C85.4124 94.458 85.6516 94.1812 85.9373 93.9582ZM86.4155 94.5473C86.2154 94.7041 86.0483 94.8989 85.924 95.1205C85.8097 95.3294 85.7367 95.5582 85.7089 95.7946C85.6856 96.035 85.7099 96.2775 85.7806 96.5085C85.8554 96.7571 85.9781 96.9888 86.1419 97.1904C86.3022 97.3985 86.5016 97.5734 86.7289 97.7053C86.9384 97.8268 87.1692 97.907 87.409 97.9415C87.6465 97.9713 87.8877 97.9532 88.1182 97.8884C88.4808 97.7921 88.8058 97.5885 89.0504 97.3043C89.295 97.0202 89.4479 96.6687 89.4889 96.2961C89.5146 96.0542 89.4911 95.8096 89.4199 95.577C89.3431 95.3256 89.2187 95.0914 89.0533 94.887C88.8947 94.6832 88.698 94.5119 88.4742 94.3828C88.2637 94.263 88.0317 94.1855 87.7915 94.1546C87.554 94.125 87.3131 94.1422 87.0822 94.205C86.839 94.2727 86.6121 94.3892 86.4155 94.5473Z" fill="white"/>
<path d="M90.6072 89.7601C90.9226 89.43 91.3193 89.1884 91.7575 89.0595C92.166 88.9392 92.5986 88.9255 93.0139 89.0197L92.9024 89.7893C92.5912 89.7199 92.268 89.7254 91.9593 89.8052C91.6498 89.8912 91.3697 90.0601 91.1491 90.2935C90.9684 90.4713 90.8264 90.6845 90.7321 90.9198C90.6429 91.1425 90.5978 91.3805 90.5993 91.6204C90.605 91.8625 90.6573 92.1012 90.7533 92.3236C90.9742 92.7986 91.3617 93.1762 91.8425 93.3851C92.0641 93.4797 92.3027 93.5285 92.5438 93.5285C92.7848 93.5285 93.0234 93.4797 93.245 93.3851C93.48 93.2877 93.6925 93.1432 93.8693 92.9605C94.0996 92.7366 94.264 92.4539 94.3448 92.1432C94.4193 91.8344 94.4193 91.5124 94.3448 91.2037L95.1125 91.0817C95.2205 91.4982 95.216 91.9359 95.0992 92.3501C94.9732 92.7885 94.7363 93.187 94.4112 93.5072C94.1554 93.7682 93.8514 93.9773 93.516 94.1228C93.1982 94.2584 92.8574 94.3323 92.5119 94.3404C92.1668 94.3474 91.8237 94.2861 91.5024 94.16C91.1704 94.0327 90.8674 93.8401 90.6113 93.5936C90.3552 93.3472 90.1513 93.0518 90.0116 92.7252C89.8718 92.3985 89.7992 92.0471 89.7979 91.6918C89.7967 91.3366 89.8668 90.9847 90.0042 90.6571C90.1442 90.3213 90.3491 90.0165 90.6072 89.7601Z" fill="white"/>
<path d="M95.9333 84.8159L94.8495 86.1773L98.3028 88.9292L97.7875 89.5794L94.3342 86.8248L93.2397 88.1862L92.658 87.7218L95.3648 84.3542L95.9333 84.8159Z" fill="white"/>
<path d="M96.9586 81.9422C97.0907 81.7392 97.2559 81.5598 97.4473 81.4114C97.6167 81.2761 97.8119 81.1768 98.021 81.1195C98.2224 81.0678 98.4325 81.0597 98.6372 81.0956C98.8541 81.1332 99.0606 81.2164 99.2428 81.3398C99.4302 81.4567 99.5912 81.6112 99.7156 81.7936C99.831 81.9653 99.9081 82.1599 99.9414 82.3641C99.9761 82.5787 99.967 82.798 99.9148 83.009C99.8556 83.248 99.7559 83.475 99.62 83.6804L99.0489 84.5614L100.725 85.6468L100.273 86.3421L95.9334 83.5318L96.9586 81.9422ZM97.0038 83.2239L98.4301 84.1474L98.9985 83.2744C99.0725 83.175 99.126 83.0618 99.1556 82.9415C99.1853 82.8212 99.1905 82.6961 99.1711 82.5738C99.1467 82.4636 99.1 82.3597 99.0337 82.2684C98.9675 82.1771 98.8831 82.1004 98.786 82.043C98.6936 81.9781 98.5891 81.9325 98.4786 81.9088C98.3682 81.885 98.2541 81.8838 98.1432 81.905C98.0225 81.9362 97.9094 81.9915 97.8107 82.0677C97.7121 82.1439 97.63 82.2393 97.5695 82.3482L97.0038 83.2239Z" fill="white"/>
<path d="M104.784 78.5505L104.367 79.3466L103.432 79.2697L102.349 81.3263L102.938 82.0535L102.537 82.8283L98.9377 78.3648L99.0679 78.1153L104.784 78.5505ZM101.862 80.7266L102.659 79.2033L100.37 78.9618L101.862 80.7266Z" fill="white"/>
<path d="M106.989 73.1236L106.686 73.8985L104.482 73.036L103.533 75.4562L105.735 76.316L105.433 77.0909L100.619 75.2067L100.922 74.4319L102.84 75.1829L103.788 72.7653L101.87 72.0143L102.173 71.2421L106.989 73.1236Z" fill="white"/>
<path d="M103.172 67.4685C103.281 67.0261 103.503 66.6199 103.818 66.2902C104.111 65.9854 104.477 65.7583 104.88 65.6294L105.167 66.3539C104.867 66.4505 104.594 66.6159 104.37 66.8369C104.145 67.0657 103.985 67.3507 103.908 67.6622C103.842 67.9069 103.826 68.1622 103.86 68.4132C103.893 68.6523 103.974 68.8822 104.098 69.0896C104.222 69.2969 104.385 69.4775 104.58 69.6207C104.791 69.7745 105.029 69.8871 105.281 69.9524C105.534 70.0198 105.797 70.0396 106.057 70.0108C106.297 69.9807 106.529 69.904 106.74 69.7852C106.953 69.6608 107.14 69.4951 107.288 69.2978C107.437 69.1005 107.545 68.8755 107.606 68.6361C107.691 68.3269 107.691 68.0006 107.606 67.6914C107.517 67.3863 107.358 67.1063 107.141 66.874L107.746 66.3858C108.042 66.692 108.251 67.0711 108.352 67.4844C108.464 67.9268 108.458 68.3907 108.333 68.8298C108.242 69.1838 108.083 69.5165 107.863 69.8091C107.655 70.0845 107.398 70.3186 107.104 70.499C106.807 70.6755 106.478 70.7918 106.137 70.8414C105.776 70.8939 105.408 70.8722 105.055 70.7777C104.705 70.6867 104.377 70.525 104.091 70.3027C103.817 70.0913 103.587 69.8276 103.416 69.527C103.245 69.2263 103.135 68.8947 103.092 68.5512C103.047 68.1886 103.074 67.8205 103.172 67.4685Z" fill="white"/>
<path d="M105.334 60.5342L105.069 62.2538L109.444 62.9252L109.319 63.7452L104.944 63.0738L104.678 64.7908L103.942 64.6767L104.596 60.4307L105.334 60.5342Z" fill="white"/>
<path d="M104.782 57.61C104.789 57.393 104.835 57.1791 104.917 56.9784C104.988 56.8015 105.094 56.6408 105.228 56.506C105.356 56.3782 105.51 56.2795 105.68 56.2167C105.859 56.1518 106.05 56.1247 106.24 56.1371C106.425 56.141 106.607 56.187 106.771 56.2716C106.935 56.3563 107.078 56.4773 107.189 56.6254C107.288 56.3454 107.474 56.1045 107.72 55.9381C107.968 55.7766 108.264 55.7028 108.559 55.7285C108.767 55.7366 108.97 55.7872 109.157 55.8771C109.333 55.9637 109.488 56.0878 109.611 56.2406C109.74 56.3974 109.836 56.5777 109.895 56.7714C109.962 56.9978 109.988 57.234 109.973 57.4693L109.853 59.6799L104.689 59.4145L104.782 57.61ZM105.459 58.6476L106.854 58.7219L106.902 57.809C106.917 57.7024 106.911 57.5939 106.883 57.4899C106.855 57.3859 106.806 57.2886 106.74 57.2039C106.676 57.1346 106.599 57.0791 106.513 57.0408C106.427 57.0024 106.334 56.9821 106.24 56.981C106.148 56.9721 106.055 56.9823 105.968 57.0111C105.88 57.0399 105.799 57.0866 105.73 57.1482C105.583 57.3065 105.504 57.5161 105.51 57.732L105.459 58.6476ZM107.566 58.7617L109.16 58.8466L109.231 57.5197C109.262 57.2763 109.199 57.0303 109.053 56.8324C108.982 56.7504 108.895 56.6843 108.796 56.6385C108.698 56.5928 108.591 56.5684 108.482 56.567C108.374 56.5573 108.265 56.5702 108.162 56.6049C108.059 56.6396 107.965 56.6954 107.885 56.7687C107.713 56.9466 107.617 57.1848 107.619 57.4322L107.566 58.7617Z" fill="white"/>
<path d="M104.676 52.0132C104.651 51.6535 104.699 51.2925 104.816 50.9517C104.926 50.6232 105.1 50.3194 105.326 50.0574C105.554 49.7964 105.83 49.5819 106.139 49.4258C106.465 49.2637 106.819 49.1689 107.182 49.147C107.545 49.1251 107.909 49.1766 108.251 49.2984C108.577 49.4149 108.876 49.5954 109.13 49.8292C109.385 50.0629 109.594 50.343 109.744 50.6545C110.057 51.3198 110.102 52.0801 109.869 52.7775C109.76 53.1056 109.586 53.4087 109.359 53.6691C109.13 53.9285 108.853 54.1411 108.543 54.2954C108.219 54.4548 107.866 54.5452 107.505 54.5608C107.144 54.5863 106.782 54.5357 106.442 54.4122C106.115 54.2959 105.814 54.1154 105.557 53.8814C105.301 53.648 105.092 53.3679 104.941 53.0561C104.786 52.7289 104.696 52.3747 104.676 52.0132ZM105.433 51.9601C105.446 52.2139 105.511 52.4623 105.624 52.6899C105.729 52.904 105.875 53.0952 106.054 53.2525C106.237 53.409 106.449 53.528 106.678 53.6028C106.926 53.6838 107.187 53.7153 107.446 53.6957C107.708 53.6837 107.965 53.6206 108.203 53.5099C108.423 53.4079 108.622 53.2647 108.788 53.088C108.948 52.9101 109.071 52.7028 109.152 52.4776C109.234 52.2373 109.268 51.9828 109.25 51.7293C109.238 51.4773 109.174 51.2305 109.061 51.0048C108.954 50.7912 108.807 50.6002 108.628 50.4422C108.443 50.2841 108.23 50.1633 107.999 50.0866C107.748 50.008 107.485 49.9765 107.223 49.9937C106.964 50.006 106.711 50.0691 106.477 50.1795C106.257 50.2823 106.06 50.4275 105.897 50.6067C105.737 50.784 105.613 50.9915 105.534 51.2171C105.451 51.4512 105.417 51.6993 105.433 51.9469V51.9601Z" fill="white"/>
<path d="M27.0953 13.7994L26.4286 14.2957L23.7722 10.7476L21.8383 12.1886L24.4947 15.734L23.8306 16.2302L20.7359 12.0825L24.0033 9.65164L27.0953 13.7994Z" fill="#E41B3B"/>
<path d="M28.4924 6.91559C28.704 6.78875 28.9357 6.699 29.1776 6.65021C29.3906 6.60754 29.61 6.60754 29.823 6.65021C30.0251 6.69742 30.2146 6.78797 30.3781 6.91559C30.5585 7.05417 30.707 7.22971 30.8137 7.43041C30.9232 7.62147 30.9928 7.83272 31.0183 8.05138C31.0402 8.25812 31.0176 8.46715 30.9519 8.6644C30.883 8.87029 30.7727 9.05993 30.6278 9.22168C30.4645 9.4059 30.2704 9.56035 30.0541 9.67813L29.1378 10.193L30.1046 11.9418L29.3795 12.3478L26.8509 7.83643L28.4924 6.91559ZM27.9346 8.06996L28.7686 9.5534L29.677 9.04388C29.7878 8.99143 29.8872 8.9175 29.9692 8.8264C30.0513 8.73529 30.1145 8.62881 30.155 8.51314C30.1845 8.40457 30.1915 8.29113 30.1755 8.17978C30.1595 8.06844 30.1209 7.96153 30.0621 7.86562C30.012 7.76213 29.9411 7.67006 29.8538 7.59518C29.7665 7.5203 29.6647 7.46421 29.5548 7.43041C29.4343 7.40133 29.3092 7.3974 29.1872 7.41886C29.0651 7.44032 28.9489 7.48672 28.8456 7.55514L27.9346 8.06996Z" fill="#E41B3B"/>
<path d="M38.6826 7.94267L37.9096 8.25051L36.5814 4.94395L34.945 9.52695L34.6794 9.63045L32.7296 4.75288L33.5026 4.44505L34.8308 7.73833L36.4698 3.18452L36.7354 3.07837L38.6826 7.94267Z" fill="#E41B3B"/>
<path d="M46.8638 4.86434C46.7943 5.21581 46.6225 5.53895 46.3698 5.79314C46.1093 6.02561 45.7859 6.17608 45.4402 6.2257C45.3329 6.243 45.2247 6.25452 45.1161 6.2602C45.0065 6.26817 44.8964 6.26817 44.7868 6.2602L44.662 5.549L44.9276 5.53308C45.0099 5.53308 45.0843 5.51715 45.1586 5.50389C45.3504 5.46954 45.532 5.39244 45.6898 5.27832C45.8579 5.15609 45.9774 4.97845 46.0272 4.77676L43.5464 1.22341L44.4893 1.06153L46.306 3.771L46.9886 0.62632L47.9156 0.464442L46.8638 4.86434Z" fill="#E41B3B"/>
<path d="M54.6815 5.16152L53.8528 5.19867L53.7625 3.32248C53.6073 3.37768 53.4485 3.42202 53.2871 3.45516C53.112 3.49067 52.9344 3.51197 52.7559 3.51885C52.4659 3.53512 52.1752 3.50374 51.8953 3.42597C51.6403 3.35497 51.4043 3.22843 51.2041 3.05545C51.0038 2.88247 50.8444 2.66735 50.7373 2.42551C50.6118 2.14637 50.5432 1.84507 50.5354 1.53917L50.4717 0.185762L51.3004 0.145955L51.3615 1.43036C51.3556 1.62057 51.3899 1.80987 51.4622 1.98592C51.5345 2.16197 51.6432 2.3208 51.7811 2.45205C52.0547 2.67483 52.4043 2.78239 52.7559 2.75192C52.919 2.74269 53.0809 2.71781 53.2393 2.67762C53.405 2.63656 53.5675 2.58334 53.7253 2.5184L53.6085 0.039806L54.4398 0L54.6815 5.16152Z" fill="#E41B3B"/>
<path d="M61.7395 5.57278L60.8497 5.49848L60.5655 4.59886L58.2468 4.40779L57.8085 5.23576L56.9267 5.16146L59.6332 0.119358L59.9121 0.140588L61.7395 5.57278ZM58.5921 3.71517L60.3079 3.85847L59.6332 1.65852L58.5921 3.71517Z" fill="#E41B3B"/>
<path d="M67.2863 1.27645C67.7336 1.36825 68.1492 1.57496 68.4922 1.8762C68.8124 2.15782 69.0547 2.51695 69.196 2.91912L68.4842 3.23491C68.3778 2.93258 68.2012 2.65975 67.9689 2.43879C67.7311 2.22342 67.4391 2.07666 67.1243 2.01419C66.8768 1.95655 66.6201 1.95023 66.37 1.99562C66.1332 2.03917 65.9075 2.12938 65.706 2.26099C65.5043 2.39469 65.3303 2.56587 65.1934 2.7652C65.0479 2.98238 64.9459 3.22572 64.8932 3.48171C64.8331 3.7357 64.8241 3.99909 64.8667 4.2566C64.9036 4.49537 64.9895 4.72395 65.119 4.92799C65.2448 5.13657 65.412 5.3172 65.6104 5.45874C65.8179 5.60494 66.0527 5.70783 66.3009 5.76127C66.6144 5.83428 66.9418 5.82237 67.2491 5.72677C67.5501 5.62623 67.8231 5.45621 68.046 5.23052L68.5586 5.817C68.267 6.12169 67.9007 6.34491 67.4961 6.46451C67.0582 6.59412 66.594 6.60693 66.1495 6.50166C65.7928 6.4255 65.4545 6.28036 65.1535 6.07441C64.8687 5.87793 64.6235 5.62943 64.4311 5.34198C64.2415 5.05363 64.1106 4.73081 64.046 4.39194C63.9797 4.03409 63.9879 3.66645 64.0699 3.31187C64.1433 2.95694 64.2909 2.62148 64.5028 2.32733C64.9114 1.76291 65.5258 1.38165 66.2133 1.26584C66.5683 1.20074 66.9326 1.20434 67.2863 1.27645Z" fill="#E41B3B"/>
<path d="M75.6777 4.73429L74.0416 4.14251L72.533 8.29826L71.7521 8.01696L73.2607 3.85856L71.6273 3.26678L71.8796 2.56619L75.9301 4.03636L75.6777 4.73429Z" fill="#E41B3B"/>
<path d="M80.0242 11.772L79.2857 11.3898L80.9327 8.22657L76.3823 9.97273L76.1326 9.84269L78.5605 5.18539L79.2964 5.57283L77.6574 8.71751L82.1998 6.98462L82.4495 7.11465L80.0242 11.772Z" fill="#E41B3B"/>
<path d="M85.8577 15.7075L85.183 15.2245L87.2549 12.3266L82.5053 13.4173L82.2768 13.2554L85.3344 8.98289L86.0117 9.46587L83.9424 12.3478L88.6841 11.2704L88.9125 11.4349L85.8577 15.7075Z" fill="#E41B3B"/>
</g>
<defs>
<clipPath id="clip0_230_41">
<rect width="110" height="110" fill="white"/>
</clipPath>
</defs>
</svg>
