<svg width="105" height="36" viewBox="0 0 105 36" fill="none" xmlns="http://www.w3.org/2000/svg">
<g clip-path="url(#clip0_230_207)">
<path d="M104.973 5.65888C104.814 3.36188 103.968 1.60973 102.593 0.723944C100.988 -0.307495 98.117 -0.317205 95.6822 1.21593C91.1164 4.44403 93.425 7.67213 93.425 7.67213C93.5705 7.28803 93.7343 6.90394 93.9109 6.53172C96.0397 2.04992 99.807 -0.288074 102.309 1.32166C103.498 2.08661 104.236 3.63916 104.374 5.6934C104.52 7.80483 104.027 10.1752 102.983 12.3697C102.383 13.6586 101.582 14.8415 100.609 15.8729C98.8363 17.5884 96.2023 20.0203 93.8841 18.8302C92.953 18.1829 93.5042 16.1178 94.4193 13.8931C94.5809 14.0943 94.7853 14.2563 95.0175 14.367C95.2496 14.4778 95.5035 14.5345 95.7603 14.5329C98.0967 14.4962 100.16 10.7567 99.6133 8.74996C99.3671 7.84799 97.6697 6.91581 96.5405 7.24704C95.8288 7.45526 95.0743 8.02709 94.3615 8.82656C93.9694 9.27016 93.6116 9.74339 93.2912 10.2421C92.4925 11.4988 91.891 12.8722 91.5081 14.3139C91.4067 14.6921 91.3263 15.0757 91.2673 15.4629C91.2416 15.6043 91.2213 15.7467 91.2042 15.8869C90.7857 16.7501 90.4207 17.3057 90.1189 17.6596L90.0954 17.6866C90.06 17.7276 90.0258 17.7653 89.9883 17.8009C89.846 17.9358 89.7229 17.9552 89.6598 17.9153C89.5966 17.8754 89.6084 17.7772 89.6105 17.7233C89.6295 17.4505 89.6652 17.1791 89.7176 16.9108C90.0247 15.3702 90.7878 11.9252 91.7286 10.4018C91.7286 10.4018 92.1824 9.25597 90.288 9.23655C89.6633 10.5961 89.1372 11.9995 88.7136 13.4357C88.1445 14.6842 87.4804 15.8864 86.7272 17.0317V17.022C86.7026 17.0619 86.6791 17.0986 86.6555 17.1299L86.6459 17.145C86.2916 17.6844 86.0947 17.6585 86.0893 17.6553C86.0604 17.6553 86.0465 17.6154 86.0423 17.569C86.0583 17.3823 86.0829 17.1881 86.0936 17.132C86.3147 15.9771 86.6039 14.8365 86.9595 13.7162C86.9593 13.7137 86.9593 13.7111 86.9595 13.7086C87.1735 13.0613 87.9623 10.5258 88.6377 9.65624C88.1186 9.42212 86.7989 9.06716 86.0219 10.9768C85.3649 12.6279 84.8402 14.3294 84.4529 16.065C83.936 17.1957 83.4897 17.8872 83.1311 18.3026L83.1076 18.3307C83.0712 18.3717 83.0359 18.4105 83.0005 18.4461C82.8539 18.5831 82.7276 18.6036 82.6634 18.5626C82.5992 18.5216 82.611 18.4224 82.6131 18.3684C82.6341 18.0923 82.672 17.8177 82.7265 17.5463C83.0401 15.9862 83.8193 12.4981 84.7868 10.9563C84.7868 10.9563 85.2503 9.79542 83.3099 9.77708C82.696 11.0985 82.1745 12.4616 81.7494 13.8564C81.2329 13.8664 80.7187 13.9289 80.2146 14.0431C80.5453 12.9491 80.9349 11.9047 81.3598 11.2304C81.3598 11.2304 81.8297 10.063 79.8614 10.0436C79.252 11.3469 78.7327 12.6912 78.3074 14.0668C77.0755 16.0391 75.0773 18.5163 74.0681 19.1863C73.8401 19.3384 73.6078 19.2564 73.5875 18.9187C73.5115 17.7028 73.8968 16.6411 74.2436 15.546C74.7263 16.0984 75.331 16.0337 75.6478 15.751C76.0951 15.3529 76.5532 14.9591 76.9385 14.4822C77.6535 13.5943 77.7584 12.6998 77.3024 11.7763C77.1621 11.4795 76.9752 11.2073 76.7491 10.9704C75.8768 10.1072 75.5333 9.86555 74.752 10.829C74.2467 11.4789 73.8011 12.1737 73.4205 12.9048C72.9907 13.6981 72.6541 14.5392 72.4177 15.4111C72.1919 15.7532 71.9478 16.0132 71.7006 16.0941C71.7242 16.0024 71.7509 15.8988 71.7798 15.7823C71.905 15.3119 72.0067 14.8674 72.0816 14.4757C72.4659 12.6664 72.8961 9.98855 72.6746 7.82425C72.5793 7.49195 72.4498 7.25027 72.2754 7.25243C71.722 7.25243 71.6257 8.68522 71.6257 8.68522C71.6428 9.34074 71.6228 9.9967 71.5658 10.6499C71.1034 10.3413 70.5126 10.1871 70.031 10.3672C68.6771 10.8743 67.1134 13.6407 66.6468 16.3994C66.0838 17.8516 64.8862 20.4788 64.1338 20.6568C64.0909 20.6777 64.0444 20.6902 63.9968 20.6935C63.9669 20.6957 63.9368 20.6957 63.9069 20.6935C63.7603 20.6805 63.7217 20.5176 63.7132 20.4281C63.7019 19.8471 63.7844 19.2681 63.9572 18.7137C63.9572 18.7137 63.9572 18.7072 63.9572 18.704C64.0396 18.3318 64.2879 17.692 64.5459 17.0856C64.6786 16.4739 64.1991 16.3886 64.1991 16.3886L62.9148 16.065C63.2886 15.4895 63.7139 14.871 64.1905 14.2092C64.1905 14.2233 64.1841 14.2373 64.182 14.2513C64.1798 14.2653 63.9112 15.8017 65.1773 16.024L65.8366 16.0693C65.8366 16.0693 65.8366 16.052 65.8366 16.0197C65.8566 15.3456 65.9819 14.6789 66.208 14.0442C66.3568 13.6288 66.5623 13.0732 66.8073 12.4539C66.8218 12.3882 66.8418 12.324 66.8673 12.2618C67.3821 10.9207 65.2619 11.0038 65.2619 11.0038C65.0382 11.5174 64.8273 12.0514 64.6432 12.5941C63.6203 13.9096 62.6699 15.2808 61.7963 16.7015C62.2587 15.382 62.6001 14.4671 62.6001 14.4671C62.6001 14.4671 64.2515 9.90655 62.3636 8.14145C61.3179 7.16288 60.9315 7.86201 60.9315 7.86201C60.9315 7.86201 62.3229 8.33673 60.8556 13.2965C60.8095 13.454 60.6758 13.8478 60.4885 14.3894C59.8613 15.6539 59.1314 16.9702 58.4763 18.0825L58.7707 17.2528C59.2063 15.9301 59.8591 13.0397 59.5584 12.5369C59.1795 11.9015 58.1735 11.3167 57.3386 11.6824C56.6483 11.9867 55.8799 12.8336 55.1981 13.9481L55.1564 14.083C55.1564 14.083 53.9791 15.8967 56.1121 16.8029L56.1421 16.817C56.9202 14.6516 57.984 12.5423 58.5695 12.4625C60.1749 12.7408 56.1935 21.8328 55.3244 21.398C54.9958 20.9233 55.3244 19.2844 55.8949 17.5377C53.9256 16.7824 53.4675 18.5314 53.3605 19.4366C53.3465 19.6674 53.3412 19.894 53.3476 20.1152C53.3926 21.5987 54.6244 22.4597 55.5427 22.3194C55.9708 22.2536 56.399 21.8965 56.8121 21.3667C57.1621 21.083 58.4282 19.0384 59.4471 17.3564C59.019 18.5691 58.577 19.8379 58.2334 20.8456C58.0975 21.2513 57.2423 24.0953 59.3465 25.2519C59.4599 24.1568 59.9512 22.3518 60.5238 20.5284C60.8449 19.7225 61.487 18.3328 62.6921 16.4221L62.188 17.9326C62.1195 18.2432 62.0804 18.5596 62.0714 18.8777C62.0714 18.9726 62.0714 19.0708 62.0778 19.1701C62.0778 19.1873 62.0778 19.2014 62.0778 19.2165C62.1217 19.9372 62.3122 20.7334 62.873 21.1768C63.0289 21.2981 63.2061 21.3885 63.3953 21.4433C63.5858 21.5274 63.7921 21.5687 64 21.5642C64.015 21.5652 64.03 21.5652 64.045 21.5642H64.0835C64.7674 21.4984 65.8516 19.1701 66.5044 17.8365C66.5044 18.075 66.5044 18.3102 66.5226 18.54C66.6361 20.0354 67.883 21.0053 68.7702 20.9416C69.8094 20.8672 70.7491 18.9921 71.3838 17.0878C71.4619 17.1115 71.7894 16.94 72.133 16.6702C72.1169 16.7684 72.0988 16.8666 72.0848 16.9659C72.0442 17.3974 71.9607 18.6533 72.2882 19.2855C72.5141 19.5855 72.7605 19.8692 73.0256 20.1346C73.7748 20.8251 74.036 20.577 74.7948 19.9674C75.5536 19.3578 76.7833 17.7826 77.7337 16.2991C77.5858 16.9931 77.4839 17.6964 77.4287 18.404C77.4287 18.404 77.3645 19.9674 78.5568 19.9868L79.17 19.9296C79.17 19.9296 79.17 19.9124 79.1647 19.88C79.103 19.2126 79.1391 18.5397 79.2717 17.8829C79.4173 17.1676 79.6602 16.0488 79.9749 14.8933C80.4796 14.7307 81.0038 14.6377 81.5332 14.6171C81.2174 15.7438 81.0095 16.8985 80.9124 18.0653C80.9124 18.0653 80.8493 19.6189 82.0287 19.6394L82.185 19.6243C82.2298 19.6286 82.275 19.6286 82.3198 19.6243C82.3647 19.619 82.409 19.6104 82.4526 19.5984H82.4708C82.5071 19.5871 82.5429 19.5737 82.5778 19.5585L82.6259 19.5412C83.0862 19.3179 83.6363 18.6856 84.257 17.5474C84.2656 18.0124 84.3641 18.4968 84.6948 18.7935L85.8303 19.4409C86.7095 18.1831 87.5029 16.8667 88.2053 15.5007C88.077 16.1376 87.988 16.7818 87.9388 17.4298C87.9368 17.5401 87.9425 17.6504 87.9559 17.7599C88.0854 18.4699 89.0262 18.9867 89.0262 18.9867L89.1792 18.9716C89.2226 18.9759 89.2664 18.9759 89.3098 18.9716C89.3539 18.9663 89.3976 18.9577 89.4404 18.9457H89.4521C89.4888 18.9356 89.5246 18.9227 89.5592 18.9068L89.6073 18.8896C90.0472 18.6738 90.5706 18.0739 91.1581 16.9961C91.1727 17.1714 91.201 17.3453 91.2427 17.5161C91.4418 18.4418 91.9919 19.2596 93.0622 19.8325C93.0843 19.846 93.1072 19.8583 93.1307 19.8692L93.1745 19.8865H93.181C93.1963 19.8949 93.2124 19.9018 93.2291 19.907L93.2634 19.9188C96.1049 21.0387 99.2569 18.6349 101.015 16.3854C102.032 15.3094 102.87 14.0751 103.497 12.7301C104.61 10.4039 105.128 7.8987 104.973 5.65888ZM94.933 12.7462C96.1895 10.3953 97.5755 8.40578 98.1941 8.39607C99.0728 8.38313 97.2961 13.6924 94.5894 13.5166C94.6986 13.2591 94.8131 13.0023 94.933 12.7462ZM76.459 12.1917C76.8101 12.9167 75.2732 15.3475 74.3827 15.3313C74.7851 14.0161 75.8822 12.3805 76.459 12.1917ZM70.5544 16.2915C69.9411 18.0491 69.1812 19.648 68.5208 19.9728C67.7053 18.7773 70.1808 11.3102 71.2736 11.2487C71.5026 11.2368 71.4876 11.8464 71.2415 12.5434C70.7224 12.7031 70.366 13.1843 70.3103 14.0614C70.2665 14.7606 70.2632 15.6517 70.5544 16.2915Z" fill="white"/>
<path d="M31.376 19.9598C31.0346 19.8271 30.7638 20.0861 30.6086 20.2986C30.5594 20.3968 30.5102 20.4896 30.4641 20.5716C29.594 22.1036 28.1609 24.3823 27.6065 24.3596C27.3711 24.3499 27.3454 23.9054 27.4096 23.3282C27.4192 23.2613 27.4289 23.1858 27.4385 23.0973C27.439 23.0948 27.439 23.0922 27.4385 23.0898C27.4385 23.052 27.4503 23.0132 27.4556 22.9754C27.4792 22.8189 27.5081 22.6582 27.5391 22.4964C27.9094 20.7615 28.9872 18.7817 28.9872 18.7817C29.2088 18.4091 29.4503 18.0489 29.7107 17.7028C29.9259 18.3852 30.3426 18.9852 30.9051 19.4225C31.243 19.6069 31.6085 19.7345 31.9871 19.8002C32.3173 19.8416 32.6497 19.8625 32.9825 19.8627C33.2036 19.8632 33.4185 19.7891 33.5931 19.6523C33.7676 19.5154 33.8918 19.3237 33.9457 19.1075C33.6824 19.1399 32.7684 19.1701 32.2772 19.0255C32.741 17.7777 33.0679 16.4825 33.2522 15.163C33.3913 13.8791 33.0135 13.4745 33.0135 13.4745C32.9119 13.2932 32.7149 13.2059 32.3714 12.9836C32.3714 12.9836 31.0421 12.0525 30.5112 12.8757C29.9956 13.7622 29.6677 14.7467 29.548 15.7672L29.1745 15.4942C28.9765 15.3971 28.7533 15.3647 28.5362 15.4014C28.319 15.4382 28.1186 15.5423 27.9629 15.6992C27.9629 15.6992 25.7485 17.9951 25.4157 23.4458C25.4381 23.7754 25.4846 24.1028 25.5548 24.4254C25.5634 24.4779 25.5752 24.5298 25.5901 24.5808C25.6715 24.8549 25.9112 25.3479 26.6251 25.6112C27.6408 25.9877 28.0753 25.6327 28.8202 24.9196C29.3243 24.4362 30.7627 22.5665 31.7335 20.2716C31.6508 20.1315 31.5254 20.0222 31.376 19.9598ZM31.4584 14.7368L31.6339 14.425L31.6532 14.4034C31.7206 14.3344 31.9625 14.1337 32.3029 14.4175C32.5758 14.6451 32.0321 16.6907 31.3824 18.4612C31.1066 18.1132 30.9397 17.6903 30.903 17.2464C30.8954 16.3784 31.0855 15.5203 31.4584 14.7379V14.7368Z" fill="white"/>
<path d="M52.7868 17.4924C52.4657 17.3629 52.2152 17.6121 52.0708 17.816C52.0247 17.911 51.9787 17.9995 51.9348 18.0793C51.1225 19.5574 49.7868 21.7541 49.2688 21.7303C49.0547 21.7206 49.0248 21.2912 49.0847 20.7334C49.0943 20.6687 49.1029 20.5964 49.1125 20.5101C49.112 20.5079 49.112 20.5057 49.1125 20.5036C49.1125 20.4669 49.1232 20.4292 49.1275 20.3957C49.15 20.2447 49.1768 20.0893 49.2057 19.9329C49.5513 18.2584 50.5563 16.3487 50.5563 16.3487C50.7627 15.9916 50.9877 15.6459 51.2306 15.313C51.4287 15.9679 51.8172 16.5478 52.3458 16.9777C52.657 17.1626 52.9996 17.2873 53.3562 17.3456L53.6301 16.6001C54.0639 15.3928 54.3692 14.1426 54.5409 12.8703C54.6704 11.6306 54.3173 11.239 54.3173 11.239C54.2231 11.0631 54.0379 10.9779 53.719 10.7632C53.719 10.7632 52.4785 9.86015 51.983 10.6553C51.4986 11.5151 51.1921 12.465 51.0818 13.4475L50.7308 13.1778C50.5465 13.0836 50.337 13.0516 50.1333 13.0865C49.9296 13.1215 49.7425 13.2216 49.5995 13.372C49.5995 13.372 48.7604 14.274 48.0712 16.2851C46.6798 19.867 45.5689 21.4218 44.84 22.0723C44.6773 22.1996 44.5414 22.2158 44.4718 22.1748C44.4489 22.1581 44.4335 22.1329 44.429 22.1047C44.4718 21.7929 44.5478 21.5296 44.6367 21.1391C45.0894 19.1496 46.4358 16.0984 47.277 14.6311C47.5606 14.138 47.5457 13.8651 47.3894 13.7043C46.8275 13.1325 45.7134 12.9555 45.7134 12.9555C44.7672 13.1314 43.6467 14.3301 42.601 15.7877C42.8397 14.2772 42.8397 12.4528 41.8047 11.4289C40.7002 10.337 40.2753 11.088 40.2753 11.088C40.2753 11.088 41.3788 11.5023 40.6146 15.0799C39.4566 16.1718 37.7152 17.8042 36.5904 19.005C36.5142 18.9461 36.4345 18.8921 36.3517 18.8432C38.3253 16.4793 39.0381 14.1985 38.7769 13.2803C38.534 12.4258 37.3107 11.9284 36.691 12.0309C35.2675 12.265 32.076 16.4307 34.3749 17.4719C34.5012 17.529 34.7195 17.4632 34.7752 17.1018C34.9497 15.9538 36.2457 13.8359 37.1298 13.4432C37.2133 14.7131 35.975 16.94 34.6682 18.3544C34.3642 18.6846 34.9892 19.2251 35.3799 19.4279C35.5616 19.527 35.6996 19.6915 35.7663 19.8886C32.7695 23.1782 29.761 26.9857 29.3575 29.3291C29.1199 30.7025 29.8498 31.2787 30.4952 31.6013C30.508 31.6088 30.523 31.6142 30.5369 31.6218L30.6108 31.6574H30.6161C30.933 31.781 31.2794 31.8058 31.6104 31.7286C33.9757 31.2377 38.8026 23.0973 37.2582 19.8336C38.0524 18.991 39.2179 17.46 40.3224 16.2397C40.255 16.4836 40.1811 16.7371 40.0987 17.0047C39.8922 17.679 38.1647 22.3615 37.1726 25.1623C37.0313 25.6068 36.0681 28.6861 38.3049 29.9991C38.6753 26.8444 41.961 18.3296 41.961 18.3296C41.961 18.3296 42.0498 18.0901 42.1686 17.6963C43.2753 15.9161 44.5179 14.2438 45.4865 13.7421C45.4372 13.8424 45.3677 13.9816 45.2585 14.192C44.1882 16.2581 42.9392 19.032 42.5454 21.6365C42.5172 21.7494 42.5172 21.8677 42.5454 21.9806C42.5717 22.0622 42.6036 22.1419 42.6406 22.2191C42.8333 22.4812 43.2956 22.8384 44.3841 23.1717C45.1643 22.8481 46.1907 21.6203 47.399 19.1431C47.3209 19.6728 47.261 20.2414 47.2246 20.8532C47.2454 21.1716 47.2886 21.4882 47.3541 21.8005C47.3622 21.8511 47.3733 21.9011 47.3873 21.9504C47.4632 22.2158 47.6891 22.6927 48.3505 22.9495C49.2988 23.3163 49.7044 22.9743 50.399 22.287C50.8689 21.822 52.212 20.0213 53.1186 17.8052C53.045 17.6671 52.9284 17.5572 52.7868 17.4924ZM52.8628 12.4463L53.0276 12.1453L53.0458 12.1237C53.1079 12.0579 53.3348 11.8648 53.6526 12.1399C53.9073 12.3557 53.399 14.3355 52.7964 16.0445C52.537 15.7047 52.3815 15.296 52.349 14.8685C52.3396 14.0326 52.5151 13.2052 52.8628 12.4463ZM30.4631 29.9937C30.2886 29.8556 31.2454 26.7041 35.7513 21.5189C35.016 24.7858 31.299 30.5504 30.4631 29.9937Z" fill="white"/>
<path d="M66.9347 8.84706C66.97 9.01105 67.0139 9.18152 67.0631 9.35522L67.076 9.34228V9.35522L67.1959 9.22899C67.5373 8.92498 67.9122 8.66145 68.3132 8.44355L68.2683 8.45325C72.1972 6.11418 76.4023 5.94047 78.2838 6.01923C81.7001 6.21128 82.2192 7.68399 82.0555 8.3842C81.8917 9.08442 82.2267 9.09305 82.2267 9.09305C82.9385 7.68076 82.6645 6.65579 82.277 5.77756C81.4625 2.43941 76.7812 3.4784 72.8415 5.13021C72.5579 5.24781 72.2807 5.36973 72.0078 5.49381C71.7751 5.07282 71.4309 4.72541 71.0135 4.49042C69.6564 3.75245 68.4919 4.22069 67.7278 5.00506C67.4399 5.31471 66.4552 6.5684 66.9261 8.81361C66.9284 8.82491 66.9313 8.83607 66.9347 8.84706ZM67.7481 6.06023C68.2008 5.32657 68.9714 4.72023 69.9315 4.83999C70.2525 4.93709 70.7149 5.20466 71.0713 5.93076C69.1726 6.85431 67.6925 7.78541 67.3253 8.16087C67.3047 8.18003 67.2857 8.20096 67.2686 8.22345C67.182 7.46851 67.351 6.70622 67.7481 6.06023Z" fill="white"/>
<path d="M66.4713 26.005H67.1017V24.1989H67.9622V26.005H68.5957V23.6778H66.4713V26.005Z" fill="white"/>
<path d="M72.2978 23.7824C72.1293 23.7076 71.9467 23.6708 71.7627 23.6745H70.7288V26.0017H71.371V25.3932H71.7648C71.9488 25.3963 72.1313 25.3595 72.2999 25.2853C72.4424 25.2222 72.5635 25.1187 72.6488 24.9876C72.7295 24.8492 72.772 24.6916 72.772 24.5312C72.772 24.3707 72.7295 24.2132 72.6488 24.0748C72.5627 23.9448 72.4407 23.8432 72.2978 23.7824ZM72.0228 24.789C71.9377 24.8542 71.8318 24.8857 71.7252 24.8775H71.3699V24.1956H71.7252C71.8319 24.1878 71.9378 24.2197 72.0228 24.2852C72.0568 24.3175 72.0835 24.3569 72.1009 24.4007C72.1183 24.4445 72.1259 24.4916 72.1234 24.5387C72.126 24.5854 72.1183 24.632 72.1009 24.6753C72.0835 24.7185 72.0568 24.7574 72.0228 24.789Z" fill="white"/>
<path d="M76.4965 23.7867C76.2967 23.6839 76.0755 23.6302 75.8511 23.6302C75.6267 23.6302 75.4056 23.6839 75.2057 23.7867C75.0197 23.8866 74.8642 24.0358 74.7562 24.2183C74.6496 24.4078 74.5935 24.6219 74.5935 24.8397C74.5935 25.0576 74.6496 25.2717 74.7562 25.4612C74.8642 25.6437 75.0197 25.7929 75.2057 25.8928C75.4056 25.9956 75.6267 26.0492 75.8511 26.0492C76.0755 26.0492 76.2967 25.9956 76.4965 25.8928C76.6826 25.7929 76.838 25.6437 76.946 25.4612C77.0527 25.2717 77.1087 25.0576 77.1087 24.8397C77.1087 24.6219 77.0527 24.4078 76.946 24.2183C76.838 24.0358 76.6826 23.8866 76.4965 23.7867ZM76.3809 25.1893C76.3326 25.286 76.2585 25.3671 76.1668 25.4234C76.0723 25.4778 75.9653 25.5064 75.8565 25.5064C75.7476 25.5064 75.6406 25.4778 75.5461 25.4234C75.4544 25.3671 75.3803 25.286 75.332 25.1893C75.2785 25.0814 75.2507 24.9625 75.2507 24.8419C75.2507 24.7213 75.2785 24.6024 75.332 24.4945C75.3806 24.398 75.4547 24.317 75.5461 24.2604C75.6406 24.206 75.7476 24.1774 75.8565 24.1774C75.9653 24.1774 76.0723 24.206 76.1668 24.2604C76.2583 24.317 76.3323 24.398 76.3809 24.4945C76.4344 24.6024 76.4622 24.7213 76.4622 24.8419C76.4622 24.9625 76.4344 25.0814 76.3809 25.1893Z" fill="white"/>
<path d="M79.7341 25.0706H80.7401V24.5786H79.7341V24.1859H80.876V23.6778H79.1005V26.005H80.9178V25.4957H79.7341V25.0706Z" fill="white"/>
<path d="M85.0758 23.6778H84.4036L83.8632 24.5819H83.556V23.6778H82.9192V26.005H83.556V25.1138H83.8471L84.3608 26.005H85.0822L84.3673 24.8009L85.0758 23.6778Z" fill="white"/>
<path d="M86.7154 24.1989H87.41V26.005H88.0404V24.1989H88.7329V23.6778H86.7154V24.1989Z" fill="white"/>
<path d="M16.2242 20.0742H16.2135C15.2332 20.3353 14.4775 20.6191 14.4775 20.6191L18.3744 18.1516L19.0283 17.7082C19.2274 17.5949 19.4222 17.4805 19.6148 17.3661L21.3455 16.2689C24.5777 14.097 26.4678 12.1086 26.4678 12.1086L26.4228 12.1237C26.6508 11.8853 26.8734 11.6414 27.0875 11.3879C27.7018 10.6607 27.888 9.69077 27.5391 8.67444C27.3486 7.74118 26.7771 7.20389 25.9337 6.89748C24.5734 6.40549 23.242 6.75506 21.8945 6.85324C21.8572 6.84138 21.8181 6.83591 21.7789 6.83706C21.4803 6.83706 21.0094 7.04421 21.3123 6.31918C20.8478 5.73657 20.5631 5.11727 20.5631 4.38361C20.5632 4.25297 20.5722 4.12248 20.5899 3.99305C20.6723 3.36189 20.1992 3.05763 19.6544 2.86235C18.9812 2.62175 18.9363 3.21731 18.7683 3.56904C18.1785 4.80763 17.6306 6.07319 17.0708 7.33228C16.8568 7.81455 16.6812 8.31193 16.0947 8.47268C13.0359 9.31855 10.1697 10.7071 7.34097 12.2025C4.95962 13.4616 2.54081 14.7638 0.535119 16.68C-0.475216 17.651 0.0203192 20.0602 1.30143 20.7992C2.33424 20.3148 3.34458 19.7732 4.38488 19.3287C5.42519 18.8842 6.50509 18.5422 7.67383 18.4494C7.93176 18.431 8.17685 18.3523 8.14046 18.0092C8.09765 17.6262 7.8654 17.3349 7.4983 17.3338C7.00491 17.3338 6.51579 17.4535 6.02133 17.4999C5.2411 17.5754 4.47051 17.8775 3.48693 18.0038C3.53937 17.5377 8.16508 14.6279 9.71376 13.7518C9.91176 13.6439 10.1119 13.5285 10.312 13.4195L10.3377 13.4055C11.8896 12.5607 13.4833 11.8087 15.0469 11.0135H15.0587L15.7929 10.6413C15.7929 10.6413 14.2806 12.716 12.3498 19.1647C12.3498 19.1647 12.2096 19.2521 11.9838 19.3967L11.9742 19.4064L11.5118 19.7031C10.4822 20.3741 8.83614 21.4887 8.49151 21.944C8.43289 22.0594 8.38696 22.181 8.35452 22.3065C8.2351 22.5848 8.1697 22.8837 8.16187 23.1869C8.16187 23.6184 8.32455 24.0165 8.71627 24.3812C8.86478 24.5344 9.05328 24.6422 9.25997 24.6919V24.7168L9.3092 24.7027L9.80581 24.5441L9.96314 24.4945L9.99846 24.4859L10.0509 24.4697L10.2767 24.4147C10.2018 25.6015 8.25605 32.6834 8.25605 32.6834L7.73483 32.6381C7.63485 32.6437 7.53457 32.6405 7.43516 32.6284C5.93926 32.4706 4.51597 31.8981 3.32318 30.9744C2.28608 30.1663 1.91577 29.0119 1.81302 27.728C1.78413 27.373 1.86333 26.8012 1.36458 26.8088C1.31608 26.8105 1.26903 26.8259 1.22866 26.853C1.17621 26.8951 1.04136 27.0515 1.02423 27.7949C0.986774 29.1155 1.88045 36.1025 9.27388 35.9946C14.362 35.9256 18.5852 33.7418 22.2456 30.421C23.8157 28.9946 24.9501 27.2921 25.116 25.0264C25.0529 23.7026 24.8956 17.9002 16.2242 20.0742ZM18.871 10.0878C18.9341 9.95187 18.9716 9.87203 18.978 9.85585L19.099 9.80082C21.369 8.68307 23.7589 8.46837 26.3982 8.8762C25.5966 10.4223 24.3497 11.3577 23.0804 12.2208C20.896 13.714 18.6366 15.122 16.3869 16.5807C16.0273 16.8127 16.0883 16.858 15.886 16.7965C17.2966 13.509 18.5093 10.8679 18.871 10.0878ZM18.8282 29.0335C17.2233 30.1189 15.503 31.02 13.6995 31.72C12.8208 32.0663 11.1511 32.4925 10.3024 32.5755C10.5102 31.4143 10.7963 30.2687 11.1586 29.1468C11.5589 27.8359 12.0609 26.3901 12.6185 24.8926C12.7897 24.4301 12.9656 23.9626 13.1461 23.49L13.3238 23.4339C13.3429 23.4314 13.3618 23.4278 13.3805 23.4231C15.1625 22.8729 16.9509 22.4068 18.7736 22.1662H18.78C18.9598 22.1414 19.1396 22.122 19.3216 22.1036C19.9295 22.0518 20.9441 22.0378 21.8239 22.3496C21.9309 22.3949 22.0379 22.437 22.145 22.4899C22.4196 22.6226 22.6723 22.7973 22.8942 23.0078C23.0676 23.1914 23.2078 23.4043 23.3083 23.6368C23.3244 23.6778 23.3426 23.7144 23.3565 23.7576C23.3779 23.8115 23.3961 23.8666 23.4111 23.9227C22.3275 25.983 20.7526 27.7394 18.8282 29.0335Z" fill="white"/>
</g>
<defs>
<clipPath id="clip0_230_207">
<rect width="105" height="36" fill="white"/>
</clipPath>
</defs>
</svg>
