<svg width="80" height="80" viewBox="0 0 80 80" fill="none" xmlns="http://www.w3.org/2000/svg">
<g clip-path="url(#clip0_230_198)">
<path d="M22.1601 24.5958H19.8827V22.3223H18.1886V24.5958H15.9112V26.2884H18.1886V28.5638H19.8827V26.2884H22.1601V24.5958Z" fill="white"/>
<path d="M25.4246 27.6645C25.8132 27.66 26.1997 27.7207 26.5682 27.844C26.9007 27.9551 27.2051 28.1368 27.4606 28.3766C27.717 28.6216 27.9151 28.9211 28.0401 29.2529C28.1851 29.6469 28.2552 30.0645 28.2468 30.4842V34.3943H26.6088V33.7555C26.3684 34.0085 26.0757 34.2061 25.7511 34.3345C25.3826 34.4812 24.9887 34.5534 24.5921 34.5468C24.2637 34.553 23.9368 34.5014 23.6263 34.3943C23.3621 34.3044 23.1175 34.1649 22.9058 33.9833C22.7128 33.8129 22.5609 33.6011 22.4615 33.3637C22.357 33.1158 22.3044 32.8491 22.3069 32.5802C22.295 32.308 22.35 32.0371 22.4672 31.7911C22.5844 31.5451 22.7602 31.3316 22.9792 31.1693C23.4273 30.8335 24.0377 30.665 24.8104 30.6637H26.4639V30.378C26.4727 30.223 26.4503 30.0677 26.3979 29.9215C26.3454 29.7753 26.2641 29.6411 26.1587 29.5269C26.0314 29.4164 25.8833 29.3323 25.7231 29.2796C25.5629 29.2269 25.3938 29.2067 25.2257 29.22C24.9019 29.215 24.5828 29.2977 24.3023 29.4594C24.0006 29.6435 23.7251 29.8675 23.4833 30.1252L22.5639 29.0213C22.9027 28.5889 23.3376 28.2412 23.8341 28.0057C24.3306 27.7702 24.8751 27.6534 25.4246 27.6645ZM25.0654 33.2364C25.4292 33.246 25.7832 33.1178 26.0563 32.8774C26.1896 32.7598 26.2951 32.6142 26.3653 32.451C26.4354 32.2878 26.4684 32.1111 26.462 31.9336V31.8545H25.0518C24.4395 31.8545 24.1324 32.0745 24.1324 32.5184C24.1274 32.6219 24.1487 32.7251 24.1943 32.8182C24.2399 32.9113 24.3083 32.9914 24.3931 33.0511C24.5919 33.1823 24.8273 33.2472 25.0654 33.2364Z" fill="white"/>
<path d="M44.44 29.3127H42.3499V34.3943H40.5651V29.3127H38.4904V27.7919H44.44V29.3127Z" fill="white"/>
<path d="M28.3955 43.3707H26.5972V38.3026H24.2174V43.3707H22.419V36.7856H28.4071L28.3955 43.3707Z" fill="white"/>
<path d="M34.0244 34.5468C34.4642 34.5518 34.9 34.4637 35.3032 34.2882C35.6869 34.1193 36.031 33.8721 36.3134 33.5625C36.6036 33.243 36.8298 32.8708 36.9799 32.4663C37.1433 32.0261 37.2245 31.5597 37.2194 31.0902C37.2248 30.6226 37.1436 30.158 36.9799 29.7199C36.8281 29.3218 36.6027 28.9558 36.3154 28.641C36.0318 28.3338 35.687 28.0893 35.3032 27.9231C34.8976 27.7487 34.4601 27.6606 34.0186 27.6645C33.5956 27.6564 33.1758 27.74 32.7882 27.9096C32.4372 28.0676 32.1327 28.3128 31.9035 28.6217V27.8112H30.2519V36.7875H31.5055V38.0999C31.5114 38.6731 31.4824 39.2461 31.4186 39.8157C31.38 40.2033 31.2884 40.5839 31.1462 40.9467C31.0496 41.2039 30.8838 41.4296 30.6672 41.599C30.4625 41.7454 30.2238 41.8371 29.9737 41.8653V43.4499C30.4238 43.4276 30.8673 43.3331 31.2873 43.17C31.6967 43.0046 32.058 42.7391 32.3381 42.398C32.6657 41.9908 32.9039 41.5193 33.0373 41.0142C33.2209 40.3219 33.3061 39.6072 33.2904 38.8912V38.2929H34.942V43.363H36.7268V36.7817H32.0541V33.7748C32.5332 34.2895 33.1899 34.5468 34.0244 34.5468ZM32.1739 30.2719C32.2624 30.0611 32.394 29.8711 32.5602 29.7141C32.7124 29.5694 32.8934 29.4583 33.0914 29.388C33.2905 29.3172 33.5002 29.2813 33.7115 29.2818C33.9347 29.2798 34.156 29.3224 34.3625 29.4072C34.566 29.4912 34.7501 29.616 34.9033 29.774C35.0627 29.9405 35.1869 30.1374 35.2684 30.3529C35.3599 30.5932 35.4051 30.8486 35.4017 31.1056C35.4063 31.364 35.3611 31.6209 35.2684 31.8622C35.1866 32.0736 35.0624 32.266 34.9033 32.4277C34.7492 32.5827 34.5652 32.7048 34.3625 32.7867C34.1562 32.8722 33.9348 32.9155 33.7115 32.914C33.5003 32.9136 33.2907 32.8777 33.0914 32.8079C32.8903 32.7357 32.7066 32.622 32.5525 32.474C32.3825 32.3119 32.2506 32.1141 32.1662 31.895C32.0683 31.6362 32.021 31.361 32.0271 31.0844C32.0219 30.8084 32.0718 30.5342 32.1739 30.2777V30.2719Z" fill="white"/>
<path d="M41.2952 36.5579C41.6845 36.5541 42.0717 36.6154 42.4407 36.7393C42.7725 36.8509 43.0767 37.0318 43.3331 37.27C43.5879 37.5172 43.7857 37.8168 43.9126 38.1482C44.0565 38.5398 44.1266 38.9547 44.1193 39.3718V43.2839H42.4793V42.6528C42.2387 42.9055 41.9461 43.1031 41.6217 43.2318C41.2529 43.3775 40.8592 43.4497 40.4627 43.4441C40.1343 43.4501 39.8074 43.3985 39.4968 43.2916C39.233 43.2013 38.989 43.0611 38.7783 42.8786C38.5837 42.7092 38.431 42.4972 38.332 42.2591C38.2275 42.0111 38.175 41.7445 38.1775 41.4755C38.1653 41.2031 38.2203 40.9319 38.3379 40.6858C38.4555 40.4397 38.632 40.2264 38.8517 40.0647C39.2998 39.7276 39.9102 39.559 40.6829 39.559H42.3345V39.2656C42.3431 39.1104 42.3203 38.9551 42.2675 38.8089C42.2148 38.6626 42.1331 38.5285 42.0273 38.4145C41.9 38.304 41.7519 38.2199 41.5917 38.1672C41.4316 38.1146 41.2625 38.0943 41.0943 38.1076C40.7699 38.1026 40.4502 38.1853 40.1691 38.347C39.868 38.5321 39.5927 38.756 39.35 39.0128L38.4402 37.9166C38.7786 37.485 39.2125 37.1376 39.7079 36.9019C40.2032 36.6661 40.7466 36.5484 41.2952 36.5579ZM40.9359 42.1336C41.2998 42.1433 41.6538 42.015 41.9269 41.7746C42.0604 41.6572 42.1662 41.5117 42.2367 41.3485C42.3072 41.1853 42.3406 41.0085 42.3345 40.8309V40.7498H40.9224C40.3107 40.7498 40.0042 40.9718 40.0029 41.4157C39.998 41.519 40.0191 41.6219 40.0643 41.715C40.1095 41.8081 40.1774 41.8883 40.2618 41.9483C40.4614 42.0794 40.6973 42.1442 40.9359 42.1336Z" fill="white"/>
<path d="M51.6258 38.2891H49.5357V43.3707H47.7509V38.2891H45.6724V36.7721H51.6258V38.2891Z" fill="white"/>
<path d="M28.0363 45.4049C28.5482 45.4092 29.0565 45.4925 29.543 45.652C29.9908 45.7966 30.4065 46.0259 30.7676 46.3275C31.1162 46.6218 31.3953 46.9896 31.5847 47.4044C31.7871 47.8611 31.8874 48.3564 31.8783 48.8558C31.8867 49.3576 31.7866 49.8553 31.5847 50.3148C31.3961 50.7297 31.12 51.0991 30.7754 51.3975C30.4159 51.6997 30.0023 51.9309 29.5565 52.0788C29.0664 52.2436 28.5533 52.3296 28.0363 52.3336V54.582H26.2282V52.3336C25.7137 52.3301 25.203 52.244 24.7157 52.0788C24.2712 51.9295 23.8599 51.6956 23.5046 51.3898C23.159 51.0894 22.8823 50.7182 22.6933 50.3013C22.4998 49.8432 22.4001 49.351 22.4001 48.8538C22.4001 48.3566 22.4998 47.8644 22.6933 47.4063C22.8821 46.9927 23.1589 46.6251 23.5046 46.3294C23.8626 46.0266 24.2768 45.7971 24.7235 45.6539C25.2092 45.4943 25.7169 45.4109 26.2282 45.4069L28.0363 45.4049ZM24.1671 48.8808C24.1509 49.1454 24.1934 49.4103 24.2916 49.6565C24.3898 49.9027 24.5412 50.1242 24.735 50.3052C25.1617 50.6556 25.7037 50.8345 26.2553 50.807H26.2823V46.947H26.2553C25.7036 46.9185 25.1612 47.0976 24.735 47.4488C24.5417 47.6293 24.3906 47.8502 24.2924 48.0957C24.1943 48.3412 24.1515 48.6053 24.1671 48.8693V48.8808ZM27.9822 46.9509V50.8108H28.0092C28.5651 50.8399 29.1119 50.661 29.543 50.309C29.9077 49.9244 30.1111 49.4146 30.1111 48.8847C30.1111 48.3548 29.9077 47.845 29.543 47.4604C29.1123 47.1077 28.5652 46.9288 28.0092 46.9586L27.9822 46.9509Z" fill="white"/>
<path d="M37.0127 45.4049C37.9472 45.4001 38.8472 45.757 39.5239 46.4008C39.851 46.7098 40.1136 47.0804 40.2966 47.4913C40.4865 47.9209 40.5826 48.3861 40.5786 48.8558C40.5822 49.3273 40.4861 49.7942 40.2966 50.226C40.1146 50.6398 39.8519 51.0131 39.5239 51.3242C38.8429 51.9653 37.9426 52.3224 37.0069 52.3224C36.0713 52.3224 35.1709 51.9653 34.49 51.3242C34.1665 51.0129 33.9096 50.6393 33.7347 50.226C33.5488 49.7932 33.4548 49.3267 33.4585 48.8558C33.4544 48.3867 33.5485 47.9219 33.7347 47.4913C33.9107 47.0808 34.1675 46.71 34.49 46.4008C34.817 46.0911 35.198 45.8438 35.6142 45.6713C36.058 45.4903 36.5334 45.3998 37.0127 45.4049ZM37.0127 47.0493C36.7814 47.041 36.5509 47.0828 36.3372 47.1717C36.1235 47.2606 35.9316 47.3947 35.7745 47.5646C35.4525 47.9213 35.2821 48.3892 35.2993 48.8693C35.2805 49.3455 35.4513 49.8098 35.7745 50.1604C35.9337 50.3267 36.1264 50.4574 36.3398 50.5439C36.5532 50.6304 36.7826 50.6707 37.0127 50.6622C37.245 50.6645 37.4752 50.6185 37.6888 50.5271C37.8942 50.4421 38.0792 50.3145 38.2316 50.1527C38.3867 49.988 38.5093 49.7955 38.5928 49.5853C38.6834 49.3576 38.7287 49.1143 38.7261 48.8693C38.7283 48.6224 38.6831 48.3773 38.5928 48.1474C38.5112 47.9328 38.3885 47.7362 38.2316 47.5685C38.0784 47.4048 37.8938 47.2735 37.6888 47.1825C37.4753 47.091 37.2449 47.0456 37.0127 47.0493Z" fill="white"/>
<path d="M45.9911 45.4049C46.4353 45.401 46.8755 45.4898 47.2834 45.6655C47.6698 45.8318 48.0167 46.0778 48.3014 46.3873C48.5885 46.7062 48.8132 47.0761 48.9639 47.4777C49.1285 47.9183 49.2103 48.3855 49.2054 48.8558C49.21 49.3279 49.1282 49.7968 48.9639 50.2396C48.8125 50.6453 48.5843 51.0182 48.2917 51.3377C48.0078 51.6492 47.6617 51.8977 47.2757 52.0673C46.8699 52.2434 46.4316 52.3322 45.9892 52.3278C45.1508 52.3278 44.4902 52.0647 44.0073 51.5384V54.5762H42.1992V45.5477H43.8605V46.3641C44.0906 46.0527 44.3973 45.8061 44.751 45.6481C45.1418 45.478 45.565 45.395 45.9911 45.4049ZM45.6704 47.0358C45.4578 47.0357 45.2467 47.0723 45.0465 47.1438C44.8469 47.214 44.6645 47.3259 44.5114 47.4719C44.3445 47.6298 44.2128 47.8212 44.1251 48.0336C44.02 48.2946 43.9694 48.5744 43.9764 48.8558C43.971 49.1344 44.0188 49.4114 44.1174 49.6721C44.203 49.8907 44.3348 50.0882 44.5037 50.2511C44.6589 50.3987 44.8431 50.5124 45.0446 50.585C45.2448 50.6566 45.4559 50.6932 45.6685 50.6931C45.8931 50.6945 46.1157 50.6512 46.3234 50.5657C46.5263 50.4822 46.7107 50.3596 46.8661 50.2048C47.0264 50.042 47.152 49.8483 47.2351 49.6355C47.329 49.3891 47.3742 49.127 47.3684 48.8635C47.3716 48.6052 47.3264 48.3486 47.2351 48.1069C47.1519 47.8913 47.0265 47.6945 46.8661 47.5279C46.7126 47.369 46.5278 47.2435 46.3234 47.1593C46.116 47.0754 45.8941 47.0334 45.6704 47.0358Z" fill="white"/>
<path d="M58.0949 52.1734H56.3004V48.9889L54.6933 50.7954H54.0867L52.4931 49.0024V52.1734H50.685V45.4049H51.2877L54.3938 48.8789L57.5135 45.4049H58.093L58.0949 52.1734Z" fill="white"/>
<path d="M62.5185 45.4049C62.9121 45.3994 63.3039 45.4601 63.6775 45.5844C64.0114 45.6969 64.3176 45.8792 64.5757 46.119C64.8321 46.367 65.0301 46.669 65.1552 47.003C65.3018 47.3986 65.3726 47.8183 65.3638 48.2401V52.1734H63.7161V51.5307C63.4747 51.7875 63.18 51.9885 62.8526 52.1194C62.4805 52.2675 62.0826 52.3404 61.682 52.3336C61.3535 52.3394 61.0265 52.2872 60.7162 52.1792C60.4506 52.0889 60.2048 51.9487 59.9918 51.7662C59.7981 51.5941 59.6451 51.3812 59.5437 51.1428C59.4392 50.8929 59.3866 50.6243 59.3892 50.3534C59.3772 50.0801 59.4326 49.8079 59.5504 49.5609C59.6683 49.3139 59.8451 49.0996 60.0652 48.9368C60.5173 48.5971 61.1296 48.4273 61.908 48.4273H63.5673V48.1339C63.5767 47.9778 63.5544 47.8214 63.5016 47.6741C63.4488 47.5268 63.3667 47.3917 63.2602 47.277C63.1319 47.1663 62.9828 47.0822 62.8216 47.0295C62.6605 46.9769 62.4904 46.9567 62.3214 46.9702C61.9957 46.9642 61.6745 47.0469 61.3923 47.2095C61.0893 47.3959 60.812 47.621 60.5675 47.8792L59.6441 46.7694C59.9845 46.3348 60.4213 45.9853 60.9202 45.7484C61.4191 45.5116 61.9663 45.394 62.5185 45.4049ZM62.1572 51.0019C62.5238 51.0119 62.8805 50.8829 63.1559 50.641C63.2896 50.5224 63.3954 50.3759 63.4658 50.2117C63.5363 50.0476 63.5696 49.8699 63.5635 49.6915V49.6104H62.1437C61.5269 49.6104 61.2191 49.8336 61.2204 50.2801C61.2155 50.3839 61.2368 50.4873 61.2824 50.5807C61.3279 50.6741 61.3963 50.7546 61.4812 50.8147C61.6799 50.95 61.9168 51.0183 62.1572 51.0096V51.0019Z" fill="white"/>
<path d="M3.88269 37.7776C3.86884 38.0407 3.8032 38.2984 3.68952 38.5361C3.4694 38.9944 3.07721 39.3474 2.59813 39.5185C2.35116 39.6088 2.08778 39.6457 1.82546 39.6265C1.56019 39.6126 1.30084 39.5429 1.06439 39.422C0.84324 39.307 0.646453 39.1504 0.484886 38.9607C0.321664 38.7696 0.19703 38.5487 0.117869 38.3103C-0.0513812 37.8026 -0.0167546 37.249 0.214453 36.7663C0.322747 36.5387 0.475054 36.3347 0.6626 36.1661C0.850027 35.9971 1.06847 35.866 1.30584 35.7801C1.55342 35.6923 1.8164 35.6561 2.07851 35.6739C2.33678 35.6882 2.58954 35.7541 2.82181 35.8679C3.05409 35.9816 3.26113 36.1407 3.43068 36.3359C3.59491 36.5266 3.72025 36.7476 3.79963 36.9863C3.88104 37.2417 3.9093 37.511 3.88269 37.7776ZM3.33023 37.7487C3.34329 37.5643 3.31898 37.3792 3.25876 37.2044C3.20165 37.0409 3.11306 36.8901 2.99799 36.7605C2.88079 36.6301 2.73815 36.525 2.57881 36.4517C2.40758 36.3719 2.22272 36.3254 2.03408 36.3147C1.84348 36.3011 1.65203 36.324 1.47004 36.3822C1.30196 36.4358 1.14631 36.5224 1.01223 36.637C0.879379 36.7492 0.771473 36.8879 0.695438 37.0442C0.613233 37.2098 0.565898 37.3904 0.556358 37.575C0.542181 37.7581 0.566526 37.9422 0.627829 38.1154C0.685793 38.2789 0.775016 38.4297 0.890536 38.5593C1.00882 38.6906 1.15279 38.7964 1.31357 38.87C1.66018 39.0302 2.05411 39.0557 2.41849 38.9414C2.58589 38.8867 2.74081 38.7994 2.87436 38.6847C3.00919 38.5671 3.11902 38.4237 3.19733 38.2629C3.27564 38.1021 3.32083 37.9272 3.33023 37.7487Z" fill="white"/>
<path d="M3.31478 43.2761L3.25876 42.0139L0.0425342 42.1606L0.0154909 41.5565L3.22979 41.4118L3.17377 40.1438L3.71463 40.1187L3.86337 43.253L3.31478 43.2761Z" fill="white"/>
<path d="M0.305241 45.127L0.216384 44.5307L3.93484 43.9787L4.0237 44.577L0.305241 45.127ZM2.39531 45.5941L0.672258 47.6051L0.562153 46.8679L2.2852 44.851L4.24971 46.1538L4.35981 46.8852L2.39531 45.5941Z" fill="white"/>
<path d="M4.90647 49.1144C4.95219 49.2873 4.96851 49.4668 4.95476 49.6451C4.9439 49.8022 4.90049 49.9554 4.82727 50.0948C4.7547 50.227 4.65615 50.3432 4.53752 50.4364C4.40915 50.5324 4.2626 50.6014 4.10676 50.6391C3.95201 50.6812 3.79012 50.6904 3.63157 50.6661C3.48259 50.6433 3.34028 50.5886 3.21433 50.5059C3.08316 50.4201 2.97025 50.3093 2.88209 50.1797C2.78307 50.0307 2.71114 49.8654 2.6696 49.6914L2.47644 48.9522L1.07018 49.3112L0.919511 48.7322L4.56457 47.8058L4.90647 49.1144ZM4.19755 48.5064L2.99992 48.8114L3.19308 49.5467C3.2083 49.6354 3.2413 49.7201 3.2901 49.7957C3.33889 49.8713 3.40248 49.9363 3.47704 49.9867C3.54776 50.0283 3.62633 50.0547 3.70779 50.0643C3.78925 50.0739 3.87183 50.0666 3.9503 50.0427C4.03013 50.0255 4.10558 49.9921 4.17202 49.9446C4.23846 49.8971 4.29448 49.8366 4.33663 49.7667C4.37982 49.6877 4.40623 49.6007 4.41421 49.511C4.42219 49.4213 4.41156 49.331 4.38299 49.2456L4.19755 48.5064Z" fill="white"/>
<path d="M4.35402 52.1966L4.6824 53.0458C4.7513 53.2153 4.78987 53.3956 4.79637 53.5784C4.80046 53.7409 4.77359 53.9027 4.71717 54.0551C4.66229 54.2004 4.57663 54.3321 4.46605 54.4411C4.34841 54.5541 4.20911 54.642 4.05654 54.6998C3.90287 54.7601 3.73866 54.7889 3.57362 54.7847C3.41792 54.78 3.26505 54.7419 3.12548 54.6727C2.97821 54.5986 2.84695 54.4963 2.73914 54.3717C2.62171 54.2313 2.52896 54.0721 2.46485 53.9007L1.9317 52.4957L5.43768 51.1447L5.65596 51.7063L4.35402 52.1966ZM3.85371 52.3896L2.64256 52.8586L2.97287 53.7077C3.0009 53.7976 3.04707 53.8808 3.10854 53.9522C3.17 54.0236 3.24545 54.0816 3.33023 54.1227C3.40926 54.1566 3.49437 54.1741 3.58038 54.1741C3.6664 54.1741 3.75151 54.1566 3.83053 54.1227C3.91142 54.0938 3.98582 54.0493 4.04946 53.9917C4.1131 53.9341 4.16474 53.8645 4.20141 53.7869C4.23573 53.6994 4.25188 53.6059 4.24889 53.512C4.2459 53.4181 4.22383 53.3258 4.18403 53.2407L3.85371 52.3896ZM3.42875 56.3557L3.21047 55.7941L6.71644 54.4431L6.93472 55.0047L3.42875 56.3557Z" fill="white"/>
<path d="M8.25405 58.6505L7.6591 57.5349L4.81762 59.0577L4.53366 58.525L7.37514 57.0119L6.78019 55.8964L7.25731 55.6435L8.73117 58.4053L8.25405 58.6505Z" fill="white"/>
<path d="M10.1297 60.4183C10.2788 60.6353 10.3844 60.8791 10.4407 61.1363C10.5476 61.6338 10.4554 62.1533 10.1838 62.5838C10.044 62.8068 9.85832 62.9976 9.63906 63.1435C9.42089 63.295 9.17354 63.3995 8.91275 63.4503C8.66591 63.4986 8.41204 63.4986 8.16519 63.4503C7.91924 63.3988 7.68526 63.3012 7.47559 63.1628C7.03298 62.8653 6.72177 62.4093 6.60634 61.889C6.55176 61.6434 6.54716 61.3894 6.59282 61.1421C6.666 60.7583 6.85216 60.405 7.12746 60.1276C7.40276 59.8501 7.75467 59.661 8.13815 59.5846C8.6374 59.4865 9.15523 59.5891 9.57917 59.8702C9.79649 60.0156 9.98346 60.2017 10.1297 60.4183ZM9.67576 60.7348C9.57415 60.5816 9.44278 60.4504 9.28942 60.3489C9.14424 60.2532 8.98135 60.1876 8.81037 60.1559C8.63742 60.1248 8.45993 60.1294 8.28882 60.1694C7.91457 60.2561 7.58607 60.479 7.36742 60.7947C7.26761 60.9405 7.19739 61.1044 7.16073 61.2772C7.12695 61.4473 7.12695 61.6224 7.16073 61.7925C7.19763 61.9734 7.27126 62.1448 7.37707 62.2962C7.47522 62.4465 7.60286 62.5752 7.75228 62.6748C7.90169 62.7743 8.06976 62.8425 8.24632 62.8752C8.42057 62.9063 8.59933 62.9017 8.77174 62.8617C8.95832 62.8199 9.13487 62.7418 9.29136 62.632C9.44303 62.5285 9.57405 62.3976 9.67769 62.246C9.77569 62.0997 9.84456 61.9359 9.88052 61.7635C9.91435 61.5882 9.91264 61.4078 9.87548 61.2331C9.83832 61.0584 9.76647 60.8929 9.66417 60.7464L9.67576 60.7348Z" fill="white"/>
<path d="M12.9557 64.9789L11.7407 63.5603L11.0105 64.1876L11.9223 65.2491L11.5244 65.5907L10.6126 64.5273L9.7086 65.2993L10.968 66.7776L10.5566 67.1289L8.90309 65.1989L11.7581 62.7536L13.3672 64.6296L12.9557 64.9789Z" fill="white"/>
<path d="M16.8268 68.6189L15.8803 67.7812L13.7554 70.1937L13.3015 69.7942L15.4263 67.3837L14.4875 66.546L14.8468 66.1407L17.1919 68.2135L16.8268 68.6189Z" fill="white"/>
<path d="M19.4577 70.545L17.9433 69.4487L17.3792 70.2207L18.5131 71.041L18.206 71.4656L17.0721 70.6434L16.3728 71.6084L17.9414 72.7606L17.6226 73.1987L15.5654 71.6991L17.7714 68.6574L19.7726 70.1069L19.4577 70.545Z" fill="white"/>
<path d="M21.4106 75.4626L20.8485 75.1364L20.9316 74.4609L19.4674 73.6117L18.9304 74.0151L18.3721 73.6928L21.7178 71.2166L21.8955 71.3189L21.4106 75.4626ZM19.9155 73.2721L20.9992 73.9012L21.2426 72.2453L19.9155 73.2721Z" fill="white"/>
<path d="M25.8844 73.9939L24.737 73.4612L23.3848 76.3793L22.8362 76.1246L24.1884 73.2064L23.041 72.6757L23.2708 72.1835L26.1123 73.5037L25.8844 73.9939Z" fill="white"/>
<path d="M28.0903 74.2197C28.2598 74.2772 28.4185 74.3626 28.5597 74.4725C28.6841 74.5696 28.7873 74.6911 28.863 74.8296C28.934 74.9621 28.9761 75.1081 28.9866 75.258C28.9954 75.4181 28.9718 75.5782 28.9171 75.7289C28.8645 75.8805 28.7824 76.0202 28.6756 76.14C28.573 76.2507 28.4479 76.3382 28.3086 76.3967C28.1629 76.4571 28.0066 76.4879 27.8489 76.4874C27.6695 76.4877 27.4915 76.4557 27.3235 76.3929L26.603 76.14L26.12 77.5084L25.5502 77.3154L26.8 73.7719L28.0903 74.2197ZM27.1921 74.4706L26.7807 75.6286L27.4954 75.8814C27.5782 75.9164 27.6672 75.9344 27.7571 75.9344C27.847 75.9344 27.9361 75.9164 28.0189 75.8814C28.0926 75.8454 28.1581 75.7946 28.2112 75.7322C28.2644 75.6697 28.3041 75.597 28.3279 75.5186C28.3588 75.4422 28.3736 75.3604 28.3716 75.278C28.3696 75.1957 28.3508 75.1147 28.3163 75.0399C28.2741 74.9603 28.2159 74.89 28.1455 74.8336C28.0751 74.7772 27.9939 74.7358 27.9068 74.7118L27.1921 74.4706Z" fill="white"/>
<path d="M31.8204 79.1798L31.1907 79.0196L31.0864 78.346L29.4464 77.9291L29.033 78.4695L28.4091 78.3113L30.9589 75.0187L31.152 75.0689L31.8204 79.1798ZM29.7844 77.4814L30.9994 77.7902L30.7812 76.1304L29.7844 77.4814Z" fill="white"/>
<path d="M35.7088 79.7742L35.112 79.6893L35.5678 76.5106L34.4745 76.3542C34.4066 76.854 34.2948 77.3467 34.1403 77.8268C34.038 78.1542 33.8863 78.464 33.6902 78.7455C33.5487 78.9492 33.3562 79.1122 33.132 79.2183C32.928 79.3065 32.707 79.348 32.4849 79.3399L32.5641 78.7822C32.7253 78.7733 32.8804 78.7177 33.0103 78.622C33.1638 78.5056 33.2887 78.3558 33.3754 78.1839C33.5007 77.9459 33.5973 77.6939 33.6632 77.4331C33.7556 77.074 33.8271 76.71 33.8776 76.3427L33.9645 75.7347L36.242 76.0609L35.7088 79.7742Z" fill="white"/>
<path d="M37.8994 77.5682L38.8111 77.6029C38.9943 77.6082 39.1753 77.6448 39.3462 77.711C39.4966 77.7715 39.6343 77.8599 39.7518 77.9716C39.8634 78.0802 39.9498 78.212 40.0049 78.3576C40.0638 78.5106 40.0894 78.6744 40.0802 78.8381C40.077 79.0031 40.0388 79.1656 39.9682 79.3148C39.9029 79.4561 39.8065 79.5808 39.6861 79.6796C39.5613 79.7829 39.4167 79.8597 39.2612 79.9054C39.0861 79.9587 38.9031 79.9809 38.7203 79.971L37.2059 79.9131L37.3488 76.1593L37.9534 76.1825L37.8994 77.5682ZM37.88 78.1028L37.8298 79.3997L38.7416 79.4345C38.8349 79.444 38.9293 79.4346 39.0189 79.4067C39.1086 79.3789 39.1916 79.3332 39.2631 79.2724C39.3243 79.2125 39.3729 79.141 39.4061 79.0622C39.4392 78.9833 39.4563 78.8986 39.4563 78.813C39.4629 78.7273 39.4519 78.6412 39.424 78.5599C39.3961 78.4786 39.3519 78.4038 39.294 78.3402C39.2277 78.2735 39.1484 78.2211 39.061 78.1862C38.9737 78.1514 38.88 78.1348 38.786 78.1375L37.88 78.1028Z" fill="white"/>
<path d="M44.4052 79.78L43.8025 79.8244L43.6808 78.1086L41.7955 78.2418L41.9172 79.9575L41.3145 80L41.048 76.252L41.6507 76.2095L41.7569 77.7033L43.6441 77.5701L43.536 76.0763L44.1386 76.0339L44.4052 79.78Z" fill="white"/>
<path d="M46.9183 75.507C47.1772 75.4559 47.4436 75.4559 47.7026 75.507C48.2022 75.6055 48.6433 75.8958 48.9311 76.3157C49.1537 76.6379 49.273 77.0203 49.273 77.4119C49.273 77.8035 49.1537 78.1858 48.9311 78.5081C48.6313 78.9332 48.1774 79.2247 47.6659 79.3206C47.4063 79.3718 47.1392 79.3718 46.8797 79.3206C46.6322 79.2733 46.3965 79.1776 46.1862 79.0389C45.9776 78.8987 45.798 78.7198 45.6569 78.512C45.4347 78.1899 45.3157 77.8079 45.3157 77.4167C45.3157 77.0255 45.4347 76.6435 45.6569 76.3214C45.8003 76.1152 45.9819 75.9383 46.192 75.8003C46.4123 75.6555 46.6591 75.5558 46.9183 75.507ZM47.0303 76.0493C46.8485 76.0822 46.6755 76.1525 46.5223 76.2558C46.381 76.3529 46.2603 76.4769 46.1669 76.6206C46.0716 76.768 46.006 76.9325 45.9737 77.105C45.939 77.2906 45.939 77.481 45.9737 77.6666C46.0086 77.8541 46.0794 78.033 46.1823 78.1935C46.2752 78.3454 46.3981 78.4767 46.5436 78.5795C46.6865 78.6788 46.8482 78.7477 47.0188 78.7822C47.1996 78.8208 47.3865 78.8208 47.5673 78.7822C47.7477 78.7494 47.9194 78.6798 48.0715 78.5776C48.2177 78.4802 48.3427 78.3542 48.439 78.2073C48.5353 78.0603 48.6008 77.8955 48.6317 77.7226C48.6673 77.5351 48.6673 77.3427 48.6317 77.1552C48.5978 76.9705 48.5282 76.7942 48.4269 76.636C48.3326 76.4847 48.2091 76.3535 48.0638 76.25C47.9189 76.1564 47.7577 76.0909 47.5886 76.057C47.4057 76.0126 47.2154 76.0073 47.0303 76.0416V76.0493Z" fill="white"/>
<path d="M52.2246 74.7118L50.4397 75.2696L50.7276 76.1883L52.0662 75.7695L52.2227 76.2693L50.884 76.6881L51.2414 77.823L53.09 77.244L53.2503 77.7612L50.8261 78.5197L49.7018 74.9338L52.0623 74.1965L52.2246 74.7118Z" fill="white"/>
<path d="M58.9468 75.2464L58.404 75.5128L56.9842 72.6274L55.4099 73.3994L56.8316 76.2848L56.2888 76.5511L54.6295 73.1813L57.2875 71.8747L58.9468 75.2464Z" fill="white"/>
<path d="M59.3969 70.6029C59.5476 70.5064 59.7134 70.4359 59.8875 70.3944C60.0406 70.3568 60.1998 70.3515 60.355 70.379C60.5036 70.4056 60.6447 70.4642 60.7684 70.5508C60.8998 70.6431 61.0109 70.7613 61.0948 70.8982C61.1806 71.0333 61.2384 71.1842 61.2648 71.3421C61.2877 71.4937 61.2771 71.6485 61.2339 71.7956C61.1907 71.9474 61.1179 72.0891 61.0195 72.2125C60.9068 72.3524 60.7709 72.4718 60.6177 72.5657L59.9745 72.9536L60.7471 74.1849L60.2352 74.5053L58.2398 71.3208L59.3969 70.6029ZM59.0337 71.4617L59.6905 72.5078L60.3318 72.1063C60.4099 72.0632 60.4786 72.0049 60.534 71.935C60.5894 71.8651 60.6303 71.7849 60.6544 71.6991C60.6831 71.5371 60.6506 71.3702 60.5632 71.2308C60.4757 71.0913 60.3396 70.9893 60.1811 70.9445C60.0924 70.9275 60.0012 70.929 59.9131 70.9489C59.825 70.9688 59.742 71.0068 59.6693 71.0603L59.0337 71.4617Z" fill="white"/>
<path d="M62.4914 68.3332C62.6971 68.1682 62.9334 68.0455 63.1868 67.9723C63.4287 67.9021 63.6819 67.8792 63.9324 67.9048C64.183 67.9324 64.4262 68.0071 64.6491 68.1248C64.8818 68.249 65.0858 68.4206 65.2479 68.6285C65.409 68.8304 65.5279 69.0625 65.5975 69.3112C65.6672 69.5598 65.6863 69.8199 65.6535 70.076C65.6201 70.3253 65.5388 70.5658 65.414 70.7843C65.2851 71.0137 65.1117 71.2151 64.9041 71.3768C64.6978 71.5424 64.4608 71.6657 64.2067 71.7396C63.965 71.8105 63.7117 71.8335 63.4611 71.8072C63.2113 71.779 62.9693 71.703 62.7483 71.5833C62.5169 71.4572 62.3138 71.2851 62.1514 71.0777C61.9862 70.8724 61.8651 70.6352 61.796 70.3809C61.6631 69.8906 61.7291 69.3678 61.9795 68.9257C62.1097 68.6967 62.2837 68.4954 62.4914 68.3332ZM62.8391 68.7617C62.6936 68.8757 62.5722 69.0174 62.4817 69.1786C62.3986 69.3304 62.3455 69.4968 62.3253 69.6688C62.3083 69.8436 62.3261 70.02 62.3774 70.1879C62.4318 70.3688 62.5211 70.5373 62.6401 70.6839C62.7568 70.8352 62.9018 70.9624 63.067 71.0583C63.2193 71.1467 63.3872 71.205 63.5615 71.2301C63.7343 71.2518 63.9097 71.2387 64.0773 71.1915C64.341 71.1215 64.5773 70.9734 64.7552 70.7668C64.9331 70.5601 65.0442 70.3045 65.074 70.0335C65.0927 69.8576 65.0756 69.6797 65.0238 69.5105C64.968 69.3277 64.8775 69.1573 64.7572 69.0087C64.6419 68.8604 64.4989 68.7359 64.3361 68.642C64.1831 68.5549 64.0144 68.4985 63.8397 68.476C63.667 68.4545 63.4918 68.467 63.324 68.5127C63.1471 68.5619 62.9821 68.6467 62.8391 68.7617Z" fill="white"/>
<path d="M65.8873 65.28C66.1166 65.0399 66.405 64.8642 66.7237 64.7704C67.0208 64.6829 67.3353 64.673 67.6374 64.7415L67.5562 65.3012C67.33 65.2508 67.0949 65.2547 66.8705 65.3128C66.6454 65.3753 66.4417 65.4981 66.2813 65.6679C66.1499 65.7972 66.0466 65.9523 65.9781 66.1234C65.9132 66.2854 65.8804 66.4584 65.8815 66.6329C65.8856 66.809 65.9237 66.9826 65.9935 67.1443C66.1541 67.4898 66.4359 67.7644 66.7855 67.9163C66.9467 67.9851 67.1202 68.0206 67.2955 68.0206C67.4707 68.0206 67.6442 67.9851 67.8054 67.9163C67.9763 67.8455 68.1308 67.7404 68.2594 67.6075C68.4268 67.4447 68.5464 67.2391 68.6051 67.0131C68.6593 66.7886 68.6593 66.5544 68.6051 66.3299L69.1634 66.2411C69.2419 66.544 69.2386 66.8624 69.1537 67.1636C69.0621 67.4824 68.8898 67.7722 68.6534 68.0051C68.4674 68.195 68.2463 68.347 68.0024 68.4529C67.7713 68.5515 67.5235 68.6052 67.2723 68.6111C67.0213 68.6162 66.7719 68.5716 66.5382 68.4799C66.2968 68.3873 66.0765 68.2472 65.8902 68.068C65.704 67.8887 65.5557 67.674 65.4541 67.4364C65.3525 67.1988 65.2997 66.9432 65.2988 66.6849C65.2979 66.4265 65.3489 66.1706 65.4488 65.9323C65.5505 65.6881 65.6996 65.4664 65.8873 65.28Z" fill="white"/>
<path d="M69.7603 61.6844L68.9722 62.6745L71.4833 64.6759L71.1086 65.1487L68.5974 63.1454L67.8016 64.1355L67.3785 63.7977L69.3469 61.3486L69.7603 61.6844Z" fill="white"/>
<path d="M70.5059 59.5942C70.602 59.4466 70.7221 59.3162 70.8613 59.2082C70.9845 59.1098 71.1265 59.0376 71.2786 58.9959C71.425 58.9583 71.5778 58.9524 71.7267 58.9785C71.8845 59.0058 72.0346 59.0664 72.1671 59.1561C72.3034 59.2411 72.4205 59.3535 72.511 59.4861C72.5949 59.611 72.6509 59.7526 72.6752 59.9011C72.7004 60.0571 72.6938 60.2166 72.6558 60.3701C72.6128 60.5439 72.5403 60.709 72.4414 60.8584L72.0261 61.4991L73.245 62.2885L72.9166 62.7941L69.7603 60.7503L70.5059 59.5942ZM70.5387 60.5264L71.576 61.198L71.9894 60.5631C72.0433 60.4908 72.0822 60.4085 72.1037 60.321C72.1253 60.2335 72.1291 60.1426 72.115 60.0536C72.0973 59.9735 72.0633 59.8979 72.0151 59.8315C71.9669 59.7651 71.9056 59.7093 71.8349 59.6676C71.7677 59.6204 71.6917 59.5872 71.6114 59.5699C71.5311 59.5527 71.4481 59.5517 71.3674 59.5672C71.2796 59.5898 71.1974 59.6301 71.1256 59.6855C71.0539 59.7409 70.9942 59.8103 70.9502 59.8895L70.5387 60.5264Z" fill="white"/>
<path d="M76.1966 57.1277L75.8933 57.7067L75.2134 57.6507L74.4252 59.1465L74.8541 59.6753L74.5624 60.2388L71.945 56.9926L72.0396 56.8112L76.1966 57.1277ZM74.0717 58.7103L74.6512 57.6025L72.9862 57.4268L74.0717 58.7103Z" fill="white"/>
<path d="M77.7999 53.1809L77.5797 53.7444L75.9764 53.1172L75.2868 54.8773L76.8881 55.5026L76.6679 56.0662L73.1677 54.6959L73.3879 54.1324L74.7826 54.6785L75.4722 52.9203L74.0775 52.3741L74.2978 51.8125L77.7999 53.1809Z" fill="white"/>
<path d="M75.0241 49.0681C75.1029 48.7464 75.2647 48.4509 75.4935 48.2112C75.7072 47.9894 75.9727 47.8243 76.2661 47.7306L76.4747 48.2575C76.2568 48.3277 76.0583 48.448 75.8952 48.6087C75.7314 48.7751 75.6153 48.9824 75.5591 49.209C75.5115 49.3869 75.4996 49.5726 75.5244 49.7551C75.5486 49.929 75.6074 50.0962 75.6973 50.2471C75.7872 50.3979 75.9064 50.5292 76.0478 50.6333C76.201 50.7452 76.3741 50.827 76.5578 50.8745C76.7415 50.9236 76.9328 50.938 77.1218 50.917C77.2964 50.8951 77.4651 50.8394 77.6183 50.7529C77.7736 50.6625 77.9093 50.542 78.0174 50.3985C78.1255 50.255 78.2039 50.0914 78.248 49.9173C78.3097 49.6924 78.3097 49.4551 78.248 49.2302C78.1835 49.0083 78.0677 48.8047 77.91 48.6357L78.3504 48.2806C78.5654 48.5033 78.7173 48.7791 78.7908 49.0796C78.8722 49.4014 78.8675 49.7388 78.7773 50.0581C78.711 50.3156 78.5949 50.5575 78.4354 50.7703C78.2843 50.9706 78.0969 51.1408 77.8829 51.2721C77.6672 51.4004 77.4283 51.485 77.1798 51.5211C76.9173 51.5592 76.6498 51.5435 76.3936 51.4748C76.1388 51.4086 75.9001 51.291 75.6924 51.1293C75.493 50.9756 75.3261 50.7838 75.2014 50.5652C75.0767 50.3465 74.9968 50.1053 74.9661 49.8555C74.9327 49.5918 74.9525 49.3241 75.0241 49.0681Z" fill="white"/>
<path d="M76.5964 44.025L76.4033 45.2756L79.5847 45.7639L79.4939 46.3603L76.3125 45.872L76.1193 47.1207L75.5843 47.0377L76.0594 43.9497L76.5964 44.025Z" fill="white"/>
<path d="M76.1947 41.8981C76.1996 41.7404 76.233 41.5848 76.2932 41.4388C76.3445 41.3102 76.4213 41.1933 76.5192 41.0953C76.6122 41.0023 76.7242 40.9305 76.8476 40.8849C76.978 40.8377 77.1167 40.818 77.2551 40.827C77.3896 40.8298 77.5216 40.8633 77.6411 40.9248C77.7606 40.9864 77.8645 41.0744 77.9447 41.1821C78.0167 40.9785 78.1521 40.8033 78.3311 40.6822C78.5118 40.5648 78.7267 40.5111 78.9415 40.5298C79.0922 40.5357 79.2402 40.5725 79.3761 40.6379C79.5042 40.7008 79.617 40.7911 79.7064 40.9023C79.7997 41.0163 79.87 41.1474 79.9131 41.2883C79.9613 41.4529 79.9802 41.6247 79.9691 41.7959L79.8822 43.4035L76.127 43.2105L76.1947 41.8981ZM76.6872 42.6528L77.7014 42.7068L77.7361 42.0429C77.7473 41.9654 77.7426 41.8864 77.7223 41.8108C77.7021 41.7352 77.6667 41.6644 77.6183 41.6029C77.5721 41.5525 77.516 41.5121 77.4535 41.4842C77.3911 41.4563 77.3236 41.4415 77.2551 41.4407C77.1883 41.4342 77.1208 41.4417 77.0569 41.4626C76.9931 41.4835 76.9343 41.5175 76.8843 41.5623C76.7773 41.6774 76.7197 41.8299 76.7239 41.9869L76.6872 42.6528ZM78.219 42.7358L79.378 42.7975L79.4302 41.8325C79.4527 41.6555 79.4064 41.4766 79.3008 41.3327C79.2492 41.273 79.1854 41.2249 79.1138 41.1916C79.0423 41.1584 78.9644 41.1407 78.8855 41.1397C78.8068 41.1326 78.7275 41.1419 78.6527 41.1672C78.5778 41.1925 78.5091 41.233 78.4508 41.2863C78.3257 41.4157 78.2564 41.5889 78.2577 41.7688L78.219 42.7358Z" fill="white"/>
<path d="M76.1174 37.8278C76.0993 37.5662 76.1342 37.3037 76.2198 37.0558C76.2997 36.8169 76.4257 36.5959 76.5906 36.4054C76.7561 36.2156 76.9569 36.0596 77.1817 35.9461C77.4183 35.8282 77.6762 35.7592 77.9401 35.7433C78.204 35.7274 78.4684 35.7648 78.7174 35.8534C78.9542 35.9381 79.1716 36.0694 79.3568 36.2394C79.5423 36.4094 79.6938 36.6131 79.803 36.8396C80.0309 37.3235 80.0634 37.8765 79.8938 38.3836C79.8144 38.6222 79.6884 38.8427 79.5229 39.0321C79.3564 39.2207 79.1551 39.3754 78.9299 39.4876C78.6942 39.6035 78.437 39.6692 78.1746 39.6806C77.9123 39.6991 77.649 39.6623 77.4019 39.5725C77.1639 39.4879 76.9453 39.3567 76.7587 39.1865C76.5724 39.0168 76.4203 38.813 76.3105 38.5863C76.1977 38.3483 76.1321 38.0907 76.1174 37.8278ZM76.6679 37.7892C76.6774 37.9738 76.7248 38.1544 76.807 38.3199C76.8832 38.4756 76.9896 38.6147 77.1199 38.7291C77.2531 38.8429 77.4073 38.9295 77.5739 38.9839C77.7537 39.0427 77.9434 39.0657 78.1321 39.0514C78.3227 39.0427 78.5097 38.9968 78.6826 38.9163C78.8426 38.8421 78.9869 38.7379 79.1076 38.6094C79.2238 38.4801 79.3137 38.3293 79.3722 38.1655C79.4325 37.9908 79.4568 37.8057 79.4437 37.6213C79.4353 37.438 79.3886 37.2585 79.3066 37.0944C79.2289 36.9391 79.122 36.8001 78.9917 36.6852C78.8573 36.5703 78.7018 36.4824 78.5339 36.4266C78.3517 36.3695 78.1604 36.3466 77.9698 36.3591C77.7818 36.368 77.5973 36.4139 77.427 36.4942C77.2675 36.569 77.1244 36.6746 77.006 36.8049C76.889 36.9338 76.7991 37.0847 76.7413 37.2488C76.6816 37.419 76.6567 37.5995 76.6679 37.7795V37.7892Z" fill="white"/>
<path d="M19.703 10.0359L19.2182 10.3969L17.2865 7.81646L15.8803 8.86444L17.8119 11.4429L17.329 11.8038L15.0786 8.78724L17.4546 7.01937L19.703 10.0359Z" fill="#E41B3B"/>
<path d="M20.7191 5.02955C20.873 4.93731 21.0416 4.87204 21.2175 4.83655C21.3724 4.80552 21.5319 4.80552 21.6869 4.83655C21.8338 4.87089 21.9716 4.93674 22.0906 5.02955C22.2217 5.13034 22.3297 5.258 22.4074 5.40397C22.487 5.54293 22.5376 5.69656 22.5561 5.85559C22.5721 6.00594 22.5556 6.15796 22.5078 6.30142C22.4577 6.45115 22.3775 6.58908 22.2722 6.70671C22.1534 6.84069 22.0122 6.95302 21.8549 7.03867L21.1885 7.41309L21.8916 8.68495L21.3643 8.98024L19.5253 5.69926L20.7191 5.02955ZM20.3134 5.8691L20.92 6.94796L21.5806 6.5774C21.6613 6.53925 21.7335 6.48549 21.7932 6.41923C21.8529 6.35297 21.8988 6.27553 21.9283 6.19141C21.9498 6.11245 21.9548 6.02995 21.9432 5.94897C21.9316 5.86799 21.9035 5.79024 21.8607 5.72049C21.8243 5.64522 21.7727 5.57826 21.7093 5.5238C21.6458 5.46934 21.5717 5.42855 21.4918 5.40397C21.4042 5.38282 21.3132 5.37996 21.2244 5.39557C21.1357 5.41118 21.0511 5.44492 20.976 5.49468L20.3134 5.8691Z" fill="#E41B3B"/>
<path d="M28.129 5.77646L27.5669 6.00034L26.601 3.59557L25.4111 6.92866L25.218 7.00393L23.8001 3.45661L24.3622 3.23273L25.3281 5.62785L26.5199 2.31599L26.7131 2.23879L28.129 5.77646Z" fill="#E41B3B"/>
<path d="M34.0785 3.53767C34.028 3.79329 33.903 4.0283 33.7192 4.21317C33.5298 4.38223 33.2946 4.49167 33.0431 4.52776C32.9651 4.54034 32.8864 4.54871 32.8075 4.55285C32.7277 4.55864 32.6477 4.55864 32.568 4.55285L32.4772 4.03561L32.6703 4.02403C32.7302 4.02403 32.7843 4.01245 32.8384 4.0028C32.9779 3.97782 33.1099 3.92175 33.2247 3.83875C33.347 3.74986 33.4339 3.62066 33.47 3.47398L31.6659 0.889725L32.3516 0.771996L33.6729 2.74252L34.1693 0.455477L34.8435 0.337748L34.0785 3.53767Z" fill="#E41B3B"/>
<path d="M39.7634 3.75383L39.1607 3.78085L39.0951 2.41635C38.9822 2.45649 38.8666 2.48874 38.7493 2.51285C38.622 2.53867 38.4928 2.55416 38.363 2.55917C38.152 2.57099 37.9406 2.54817 37.7371 2.49162C37.5517 2.43997 37.38 2.34795 37.2343 2.22215C37.0887 2.09634 36.9728 1.93989 36.8949 1.76401C36.8036 1.561 36.7537 1.34187 36.7481 1.11939L36.7017 0.135099L37.3044 0.106149L37.3488 1.04026C37.3446 1.1786 37.3695 1.31627 37.4221 1.44431C37.4747 1.57234 37.5537 1.68786 37.654 1.78331C37.853 1.94533 38.1073 2.02355 38.363 2.0014C38.4816 1.99468 38.5993 1.97659 38.7145 1.94736C38.835 1.9175 38.9532 1.87879 39.068 1.83156L38.983 0.0289498L39.5876 0L39.7634 3.75383Z" fill="#E41B3B"/>
<path d="M44.8959 4.05298L44.2487 3.99894L44.0421 3.34467L42.3557 3.20571L42.037 3.80787L41.3957 3.75383L43.364 0.0868495L43.5669 0.102289L44.8959 4.05298ZM42.6068 2.70199L43.8547 2.80621L43.364 1.20624L42.6068 2.70199Z" fill="#E41B3B"/>
<path d="M48.9292 0.928325C49.2545 0.995089 49.5567 1.14542 49.8061 1.3645C50.039 1.56932 50.2153 1.83051 50.318 2.12299L49.8004 2.35266C49.723 2.13278 49.5946 1.93436 49.4256 1.77366C49.2526 1.61703 49.0403 1.51029 48.8113 1.46486C48.6313 1.42294 48.4446 1.41834 48.2627 1.45135C48.0905 1.48303 47.9264 1.54864 47.7798 1.64435C47.6332 1.74159 47.5066 1.86608 47.407 2.01105C47.3012 2.169 47.2271 2.34597 47.1887 2.53215C47.145 2.71687 47.1385 2.90843 47.1694 3.0957C47.1963 3.26936 47.2588 3.43559 47.3529 3.58399C47.4444 3.73569 47.566 3.86705 47.7103 3.96999C47.8612 4.07632 48.032 4.15115 48.2125 4.19001C48.4405 4.24311 48.6786 4.23444 48.9021 4.16492C49.121 4.0918 49.3195 3.96815 49.4816 3.80401L49.8544 4.23054C49.6424 4.45213 49.376 4.61447 49.0818 4.70145C48.7633 4.79572 48.4256 4.80504 48.1024 4.72847C47.843 4.67309 47.5969 4.56753 47.378 4.41775C47.1709 4.27486 46.9926 4.09412 46.8526 3.88507C46.7148 3.67536 46.6196 3.44058 46.5725 3.19413C46.5244 2.93388 46.5303 2.6665 46.5899 2.40863C46.6434 2.1505 46.7506 1.90652 46.9048 1.6926C47.202 1.28211 47.6488 1.00483 48.1488 0.920605C48.407 0.873261 48.6719 0.875882 48.9292 0.928325Z" fill="#E41B3B"/>
<path d="M55.0313 3.4431L53.8414 3.01271L52.7442 6.03508L52.1763 5.8305L53.2735 2.80621L52.0855 2.37582L52.269 1.8663L55.2148 2.93551L55.0313 3.4431Z" fill="#E41B3B"/>
<path d="M58.1915 8.56143L57.6545 8.28351L58.8521 5.98297L55.5432 7.2529L55.3616 7.15833L57.1272 3.7712L57.6622 4.05298L56.4704 6.34002L59.7736 5.07973L59.9551 5.1743L58.1915 8.56143Z" fill="#E41B3B"/>
<path d="M62.4335 11.4236L61.9428 11.0723L63.4495 8.9648L59.9957 9.75803L59.8296 9.6403L62.0529 6.53301L62.5455 6.88427L61.0407 8.98024L64.4888 8.19667L64.6549 8.31633L62.4335 11.4236Z" fill="#E41B3B"/>
</g>
<defs>
<clipPath id="clip0_230_198">
<rect width="80" height="80" fill="white"/>
</clipPath>
</defs>
</svg>
