<svg width="110" height="110" viewBox="0 0 110 110" fill="none" xmlns="http://www.w3.org/2000/svg">
<circle cx="55" cy="55" r="55" fill="white"/>
<path d="M23.1373 73.2841L23.0066 31.6338H27.6801L27.798 66.3441L61.9583 31.6338H67.1035V65.6409L81.5879 51.2527L81.5598 31.6441L86.8921 31.6338L86.7357 52.8876L67.2573 73.2841H61.8839L47.5097 59.0371V73.2841H42.6388V59.0884L27.9928 73.2841H23.1373Z" fill="#141311"/>
<path d="M48.871 52.0022L62.2711 65.6692V38.3327L48.871 52.0022Z" fill="white"/>
<path d="M42.7286 44.5975V31.6543H47.5072V39.3001L42.7286 44.5975Z" fill="#141311"/>
<path d="M85.8488 68.1844L81.8957 72.3217C81.8232 72.3987 81.7837 72.5009 81.7854 72.6066L81.9085 78.1684C81.9106 78.2453 81.9349 78.3199 81.9783 78.3834C82.0218 78.4469 82.0826 78.4965 82.1534 78.5263C82.2243 78.556 82.3022 78.5648 82.3779 78.5514C82.4536 78.538 82.5238 78.503 82.5802 78.4507L86.8665 74.4494C86.9107 74.4086 86.9449 74.3583 86.9667 74.3022C86.9884 74.2462 86.9972 74.1859 86.9921 74.126L86.5358 68.4282C86.5294 68.3515 86.501 68.2782 86.454 68.2172C86.407 68.1562 86.3434 68.11 86.2709 68.0843C86.1984 68.0585 86.12 68.0543 86.0451 68.0721C85.9702 68.0898 85.9021 68.1288 85.8488 68.1844Z" fill="#F59F4B"/>
</svg>
