<svg>
  	<symbol id="arrow-down" viewBox="0 0 18 26" xmlns="http://www.w3.org/2000/svg">
		<path d="M9 2V24" stroke-width="2" stroke-linecap="round" stroke-linejoin="round"/>
		<path d="M16 17L9 24L2 17" stroke-width="2" stroke-linecap="round" stroke-linejoin="round"/>
	</symbol>
	<symbol id="arrow-right" viewBox="0 0 50 12" fill="none" xmlns="http://www.w3.org/2000/svg">
		<path d="M1 5.98H48.5" stroke="#DD2401" stroke-width="0.75" stroke-miterlimit="10" stroke-linecap="round"/>
		<path d="M44 1L48.98 5.98" stroke="#DD2401" stroke-width="0.75" stroke-miterlimit="10" stroke-linecap="round"/>
		<path d="M44 10.96L48.98 5.98" stroke="#DD2401" stroke-width="0.75" stroke-miterlimit="10" stroke-linecap="round"/>
	</symbol>
	<symbol id="bull" xmlns="http://www.w3.org/2000/svg">
		<circle cx="17" cy="17" r="16.75" stroke="#DD2401" stroke-width="0.5"/>
		<path d="M21.25 21.75L47 21.75" stroke="#DD2401" stroke-width="0.5" stroke-linecap="round"/>
	</symbol>
	<symbol id="chat" viewBox="0 0 18 17" xmlns="http://www.w3.org/2000/svg">
		<path d="M1.4375 16.3969C1.23572 16.3962 1.03644 16.3523 0.853122 16.268C0.614556 16.1595 0.412746 15.9839 0.272343 15.7626C0.13194 15.5413 0.0590226 15.2839 0.0624965 15.0219V1.375C0.0624965 1.01033 0.207362 0.660591 0.465225 0.402728C0.723087 0.144866 1.07282 0 1.4375 0H16.5625C16.9272 0 17.2769 0.144866 17.5348 0.402728C17.7926 0.660591 17.9375 1.01033 17.9375 1.375V12.375C17.9375 12.7397 17.7926 13.0894 17.5348 13.3473C17.2769 13.6051 16.9272 13.75 16.5625 13.75H5.08984L2.32265 16.0789C2.07452 16.2863 1.76088 16.399 1.4375 16.3969ZM1.4375 1.375V15.0219L4.20468 12.7016C4.45042 12.4891 4.76497 12.373 5.08984 12.375H16.5625V1.375H1.4375Z"/>
	</symbol>
	<symbol id="instagram" viewBox="0 0 20 20" xmlns="http://www.w3.org/2000/svg">
		<path d="M9.99731 4.86903C7.15795 4.86903 4.86644 7.16058 4.86644 10C4.86644 12.8394 7.15795 15.131 9.99731 15.131C12.8367 15.131 15.1282 12.8394 15.1282 10C15.1282 7.16058 12.8367 4.86903 9.99731 4.86903ZM9.99731 13.3348C8.16111 13.3348 6.66262 11.8362 6.66262 10C6.66262 8.16376 8.16111 6.66525 9.99731 6.66525C11.8335 6.66525 13.332 8.16376 13.332 10C13.332 11.8362 11.8335 13.3348 9.99731 13.3348ZM15.3383 3.46308C14.6754 3.46308 14.14 3.99845 14.14 4.66139C14.14 5.32434 14.6754 5.8597 15.3383 5.8597C16.0013 5.8597 16.5366 5.32684 16.5366 4.66139C16.5368 4.50397 16.5059 4.34806 16.4458 4.20259C16.3856 4.05711 16.2974 3.92493 16.1861 3.81362C16.0748 3.70231 15.9426 3.61405 15.7971 3.5539C15.6516 3.49375 15.4957 3.46289 15.3383 3.46308V3.46308ZM19.9989 10C19.9989 8.61907 20.0114 7.25064 19.9338 5.87221C19.8563 4.27113 19.4911 2.85017 18.3203 1.67938C17.147 0.506085 15.7286 0.14334 14.1275 0.065788C12.7466 -0.0117644 11.3782 0.000744113 9.99981 0.000744113C8.61891 0.000744113 7.25051 -0.0117644 5.8721 0.065788C4.27105 0.14334 2.85012 0.508587 1.67935 1.67938C0.506076 2.85267 0.143338 4.27113 0.0657868 5.87221C-0.0117642 7.25314 0.000744099 8.62157 0.000744099 10C0.000744099 11.3784 -0.0117642 12.7494 0.0657868 14.1278C0.143338 15.7289 0.508578 17.1498 1.67935 18.3206C2.85262 19.4939 4.27105 19.8567 5.8721 19.9342C7.25301 20.0118 8.62141 19.9993 9.99981 19.9993C11.3807 19.9993 12.7491 20.0118 14.1275 19.9342C15.7286 19.8567 17.1495 19.4914 18.3203 18.3206C19.4936 17.1473 19.8563 15.7289 19.9338 14.1278C20.0139 12.7494 19.9989 11.3809 19.9989 10V10ZM17.7974 15.899C17.6148 16.3543 17.3947 16.6945 17.0419 17.0448C16.6892 17.3975 16.3515 17.6176 15.8962 17.8003C14.5803 18.3231 11.4558 18.2055 9.99731 18.2055C8.53885 18.2055 5.4118 18.3231 4.09593 17.8028C3.64064 17.6201 3.30041 17.4 2.95018 17.0473C2.59745 16.6945 2.37731 16.3568 2.19469 15.9015C1.67434 14.5831 1.79192 11.4585 1.79192 10C1.79192 8.54151 1.67434 5.4144 2.19469 4.09851C2.37731 3.6432 2.59745 3.30298 2.95018 2.95274C3.30291 2.6025 3.64064 2.37985 4.09593 2.19723C5.4118 1.67688 8.53885 1.79446 9.99731 1.79446C11.4558 1.79446 14.5828 1.67688 15.8987 2.19723C16.354 2.37985 16.6942 2.6 17.0444 2.95274C17.3972 3.30548 17.6173 3.6432 17.7999 4.09851C18.3203 5.4144 18.2027 8.54151 18.2027 10C18.2027 11.4585 18.3203 14.5831 17.7974 15.899Z"/>
	</symbol>
	<symbol id="telegram" viewBox="0 0 20 18" xmlns="http://www.w3.org/2000/svg">
		<path d="M19.4909 0.350305C19.2859 0.177691 19.0377 0.0634984 18.7727 0.0198648C18.5077 -0.0237689 18.2357 0.00478703 17.9857 0.102497L0.93955 6.75659C0.640563 6.86981 0.38731 7.07758 0.218787 7.3479C0.0502646 7.61823 -0.0241838 7.93611 0.00690595 8.25262C0.034643 8.569 0.164823 8.86792 0.377925 9.10455C0.591026 9.34118 0.875564 9.50277 1.18887 9.56508L5.51966 10.4186V15.797C5.51951 16.0879 5.60632 16.3724 5.76908 16.6142C5.93184 16.8561 6.16321 17.0444 6.43384 17.1553C6.61294 17.227 6.80405 17.2644 6.99712 17.2655C7.19117 17.2662 7.3834 17.2284 7.56257 17.1543C7.74174 17.0802 7.90425 16.9714 8.04057 16.8341L10.4414 14.457L14.0704 17.6326C14.3383 17.8675 14.6828 17.9979 15.04 17.9997C15.1971 18.0029 15.3535 17.9781 15.5017 17.9263C15.7454 17.8497 15.9647 17.7111 16.138 17.5244C16.3113 17.3377 16.4326 17.1092 16.4898 16.8616L19.9618 1.79126C20.0225 1.53122 20.0107 1.25965 19.9277 1.00576C19.8447 0.751867 19.6937 0.525261 19.4909 0.350305ZM6.08294 9.03275L1.48436 8.12413L14.3752 3.08537L6.08294 9.03275ZM6.99712 15.797V11.4466L9.32411 13.4841L6.99712 15.797ZM15.0493 16.5312L7.44035 9.87714L18.4012 2.01153L15.0493 16.5312Z"/>
	</symbol>
	<symbol id="vk" viewBox="0 0 21 12" xmlns="http://www.w3.org/2000/svg">
		<path d="M19.579 0.806C19.719 0.341 19.579 0 18.917 0H16.724C16.166 0 15.911 0.295 15.771 0.619C15.771 0.619 14.656 3.338 13.076 5.101C12.566 5.614 12.333 5.776 12.055 5.776C11.916 5.776 11.714 5.614 11.714 5.149V0.806C11.714 0.248 11.553 0 11.088 0H7.642C7.294 0 7.084 0.258 7.084 0.504C7.084 1.032 7.874 1.154 7.955 2.642V5.87C7.955 6.577 7.828 6.706 7.548 6.706C6.805 6.706 4.997 3.977 3.924 0.853C3.715 0.246 3.504 0.0010004 2.944 0.0010004H0.752C0.125 0.0010004 0 0.296 0 0.62C0 1.202 0.743 4.082 3.461 7.891C5.273 10.492 7.824 11.902 10.148 11.902C11.541 11.902 11.713 11.589 11.713 11.049V9.083C11.713 8.457 11.846 8.331 12.287 8.331C12.611 8.331 13.169 8.495 14.47 9.748C15.956 11.234 16.202 11.901 17.037 11.901H19.229C19.855 11.901 20.168 11.588 19.988 10.97C19.791 10.355 19.081 9.46 18.139 8.401C17.627 7.797 16.862 7.147 16.629 6.822C16.304 6.403 16.398 6.218 16.629 5.846C16.63 5.847 19.301 2.085 19.579 0.806V0.806Z"/>
	</symbol>
</svg>